<mxfile host="app.diagrams.net" modified="2024-05-05T20:46:12.426Z" agent="Mozilla/5.0 (Macintosh; Intel Mac OS X 10_15_7) AppleWebKit/537.36 (KHTML, like Gecko) Chrome/123.0.0.0 Safari/537.36 OPR/109.0.0.0" etag="hKGXnERn5Eex52_SifQ5" version="24.3.1" type="device">
  <diagram name="PÃ¡gina-1" id="GKcQqyCfQ1V4mNrMHVXt">
    <mxGraphModel dx="1838" dy="1037" grid="1" gridSize="10" guides="1" tooltips="1" connect="1" arrows="1" fold="1" page="1" pageScale="1" pageWidth="827" pageHeight="1169" math="0" shadow="0">
      <root>
        <mxCell id="0" />
        <mxCell id="1" parent="0" />
        <mxCell id="QTCGtiCho6-xsiTmYkx_-31" value="movies" style="shape=table;startSize=30;container=1;collapsible=0;childLayout=tableLayout;fixedRows=1;rowLines=0;fontStyle=1;strokeColor=default;fontSize=16;" parent="1" vertex="1">
          <mxGeometry x="680" y="40" width="200" height="299" as="geometry" />
        </mxCell>
        <mxCell id="QTCGtiCho6-xsiTmYkx_-32" value="" style="shape=tableRow;horizontal=0;startSize=0;swimlaneHead=0;swimlaneBody=0;top=0;left=0;bottom=0;right=0;collapsible=0;dropTarget=0;fillColor=none;points=[[0,0.5],[1,0.5]];portConstraint=eastwest;strokeColor=inherit;fontSize=16;" parent="QTCGtiCho6-xsiTmYkx_-31" vertex="1">
          <mxGeometry y="30" width="200" height="30" as="geometry" />
        </mxCell>
        <mxCell id="QTCGtiCho6-xsiTmYkx_-33" value="&lt;b&gt;PK&lt;/b&gt;" style="shape=partialRectangle;html=1;whiteSpace=wrap;connectable=0;fillColor=none;top=0;left=0;bottom=0;right=0;overflow=hidden;pointerEvents=1;strokeColor=inherit;fontSize=16;" parent="QTCGtiCho6-xsiTmYkx_-32" vertex="1">
          <mxGeometry width="44" height="30" as="geometry">
            <mxRectangle width="44" height="30" as="alternateBounds" />
          </mxGeometry>
        </mxCell>
        <mxCell id="QTCGtiCho6-xsiTmYkx_-34" value="id" style="shape=partialRectangle;html=1;whiteSpace=wrap;connectable=0;fillColor=none;top=0;left=0;bottom=0;right=0;align=left;spacingLeft=6;overflow=hidden;strokeColor=inherit;fontSize=16;" parent="QTCGtiCho6-xsiTmYkx_-32" vertex="1">
          <mxGeometry x="44" width="156" height="30" as="geometry">
            <mxRectangle width="156" height="30" as="alternateBounds" />
          </mxGeometry>
        </mxCell>
        <mxCell id="QTCGtiCho6-xsiTmYkx_-35" value="" style="shape=tableRow;horizontal=0;startSize=0;swimlaneHead=0;swimlaneBody=0;top=0;left=0;bottom=0;right=0;collapsible=0;dropTarget=0;fillColor=none;points=[[0,0.5],[1,0.5]];portConstraint=eastwest;strokeColor=inherit;fontSize=16;" parent="QTCGtiCho6-xsiTmYkx_-31" vertex="1">
          <mxGeometry y="60" width="200" height="36" as="geometry" />
        </mxCell>
        <mxCell id="QTCGtiCho6-xsiTmYkx_-36" value="" style="shape=partialRectangle;html=1;whiteSpace=wrap;connectable=0;fillColor=none;top=0;left=0;bottom=0;right=0;overflow=hidden;strokeColor=inherit;fontSize=16;" parent="QTCGtiCho6-xsiTmYkx_-35" vertex="1">
          <mxGeometry width="44" height="36" as="geometry">
            <mxRectangle width="44" height="36" as="alternateBounds" />
          </mxGeometry>
        </mxCell>
        <mxCell id="QTCGtiCho6-xsiTmYkx_-37" value="created_at" style="shape=partialRectangle;html=1;whiteSpace=wrap;connectable=0;fillColor=none;top=0;left=0;bottom=0;right=0;align=left;spacingLeft=6;overflow=hidden;strokeColor=inherit;fontSize=16;" parent="QTCGtiCho6-xsiTmYkx_-35" vertex="1">
          <mxGeometry x="44" width="156" height="36" as="geometry">
            <mxRectangle width="156" height="36" as="alternateBounds" />
          </mxGeometry>
        </mxCell>
        <mxCell id="QTCGtiCho6-xsiTmYkx_-38" value="" style="shape=tableRow;horizontal=0;startSize=0;swimlaneHead=0;swimlaneBody=0;top=0;left=0;bottom=0;right=0;collapsible=0;dropTarget=0;fillColor=none;points=[[0,0.5],[1,0.5]];portConstraint=eastwest;strokeColor=inherit;fontSize=16;" parent="QTCGtiCho6-xsiTmYkx_-31" vertex="1">
          <mxGeometry y="96" width="200" height="29" as="geometry" />
        </mxCell>
        <mxCell id="QTCGtiCho6-xsiTmYkx_-39" value="" style="shape=partialRectangle;html=1;whiteSpace=wrap;connectable=0;fillColor=none;top=0;left=0;bottom=0;right=0;overflow=hidden;strokeColor=inherit;fontSize=16;" parent="QTCGtiCho6-xsiTmYkx_-38" vertex="1">
          <mxGeometry width="44" height="29" as="geometry">
            <mxRectangle width="44" height="29" as="alternateBounds" />
          </mxGeometry>
        </mxCell>
        <mxCell id="QTCGtiCho6-xsiTmYkx_-40" value="updated_at" style="shape=partialRectangle;html=1;whiteSpace=wrap;connectable=0;fillColor=none;top=0;left=0;bottom=0;right=0;align=left;spacingLeft=6;overflow=hidden;strokeColor=inherit;fontSize=16;" parent="QTCGtiCho6-xsiTmYkx_-38" vertex="1">
          <mxGeometry x="44" width="156" height="29" as="geometry">
            <mxRectangle width="156" height="29" as="alternateBounds" />
          </mxGeometry>
        </mxCell>
        <mxCell id="QTCGtiCho6-xsiTmYkx_-41" style="shape=tableRow;horizontal=0;startSize=0;swimlaneHead=0;swimlaneBody=0;top=0;left=0;bottom=0;right=0;collapsible=0;dropTarget=0;fillColor=none;points=[[0,0.5],[1,0.5]];portConstraint=eastwest;strokeColor=inherit;fontSize=16;" parent="QTCGtiCho6-xsiTmYkx_-31" vertex="1">
          <mxGeometry y="125" width="200" height="29" as="geometry" />
        </mxCell>
        <mxCell id="QTCGtiCho6-xsiTmYkx_-42" value="" style="shape=partialRectangle;html=1;whiteSpace=wrap;connectable=0;fillColor=none;top=0;left=0;bottom=0;right=0;overflow=hidden;strokeColor=inherit;fontSize=16;" parent="QTCGtiCho6-xsiTmYkx_-41" vertex="1">
          <mxGeometry width="44" height="29" as="geometry">
            <mxRectangle width="44" height="29" as="alternateBounds" />
          </mxGeometry>
        </mxCell>
        <mxCell id="QTCGtiCho6-xsiTmYkx_-43" value="title" style="shape=partialRectangle;html=1;whiteSpace=wrap;connectable=0;fillColor=none;top=0;left=0;bottom=0;right=0;align=left;spacingLeft=6;overflow=hidden;strokeColor=inherit;fontSize=16;" parent="QTCGtiCho6-xsiTmYkx_-41" vertex="1">
          <mxGeometry x="44" width="156" height="29" as="geometry">
            <mxRectangle width="156" height="29" as="alternateBounds" />
          </mxGeometry>
        </mxCell>
        <mxCell id="QTCGtiCho6-xsiTmYkx_-112" style="shape=tableRow;horizontal=0;startSize=0;swimlaneHead=0;swimlaneBody=0;top=0;left=0;bottom=0;right=0;collapsible=0;dropTarget=0;fillColor=none;points=[[0,0.5],[1,0.5]];portConstraint=eastwest;strokeColor=inherit;fontSize=16;" parent="QTCGtiCho6-xsiTmYkx_-31" vertex="1">
          <mxGeometry y="154" width="200" height="29" as="geometry" />
        </mxCell>
        <mxCell id="QTCGtiCho6-xsiTmYkx_-113" value="" style="shape=partialRectangle;html=1;whiteSpace=wrap;connectable=0;fillColor=none;top=0;left=0;bottom=0;right=0;overflow=hidden;strokeColor=inherit;fontSize=16;" parent="QTCGtiCho6-xsiTmYkx_-112" vertex="1">
          <mxGeometry width="44" height="29" as="geometry">
            <mxRectangle width="44" height="29" as="alternateBounds" />
          </mxGeometry>
        </mxCell>
        <mxCell id="QTCGtiCho6-xsiTmYkx_-114" value="rating" style="shape=partialRectangle;html=1;whiteSpace=wrap;connectable=0;fillColor=none;top=0;left=0;bottom=0;right=0;align=left;spacingLeft=6;overflow=hidden;strokeColor=inherit;fontSize=16;" parent="QTCGtiCho6-xsiTmYkx_-112" vertex="1">
          <mxGeometry x="44" width="156" height="29" as="geometry">
            <mxRectangle width="156" height="29" as="alternateBounds" />
          </mxGeometry>
        </mxCell>
        <mxCell id="QTCGtiCho6-xsiTmYkx_-109" style="shape=tableRow;horizontal=0;startSize=0;swimlaneHead=0;swimlaneBody=0;top=0;left=0;bottom=0;right=0;collapsible=0;dropTarget=0;fillColor=none;points=[[0,0.5],[1,0.5]];portConstraint=eastwest;strokeColor=inherit;fontSize=16;" parent="QTCGtiCho6-xsiTmYkx_-31" vertex="1">
          <mxGeometry y="183" width="200" height="29" as="geometry" />
        </mxCell>
        <mxCell id="QTCGtiCho6-xsiTmYkx_-110" value="" style="shape=partialRectangle;html=1;whiteSpace=wrap;connectable=0;fillColor=none;top=0;left=0;bottom=0;right=0;overflow=hidden;strokeColor=inherit;fontSize=16;fontStyle=1" parent="QTCGtiCho6-xsiTmYkx_-109" vertex="1">
          <mxGeometry width="44" height="29" as="geometry">
            <mxRectangle width="44" height="29" as="alternateBounds" />
          </mxGeometry>
        </mxCell>
        <mxCell id="QTCGtiCho6-xsiTmYkx_-111" value="awards" style="shape=partialRectangle;html=1;whiteSpace=wrap;connectable=0;fillColor=none;top=0;left=0;bottom=0;right=0;align=left;spacingLeft=6;overflow=hidden;strokeColor=inherit;fontSize=16;" parent="QTCGtiCho6-xsiTmYkx_-109" vertex="1">
          <mxGeometry x="44" width="156" height="29" as="geometry">
            <mxRectangle width="156" height="29" as="alternateBounds" />
          </mxGeometry>
        </mxCell>
        <mxCell id="yq9nLCr21f6rnNmGo06T-26" style="shape=tableRow;horizontal=0;startSize=0;swimlaneHead=0;swimlaneBody=0;top=0;left=0;bottom=0;right=0;collapsible=0;dropTarget=0;fillColor=none;points=[[0,0.5],[1,0.5]];portConstraint=eastwest;strokeColor=inherit;fontSize=16;" parent="QTCGtiCho6-xsiTmYkx_-31" vertex="1">
          <mxGeometry y="212" width="200" height="29" as="geometry" />
        </mxCell>
        <mxCell id="yq9nLCr21f6rnNmGo06T-27" style="shape=partialRectangle;html=1;whiteSpace=wrap;connectable=0;fillColor=none;top=0;left=0;bottom=0;right=0;overflow=hidden;strokeColor=inherit;fontSize=16;fontStyle=1" parent="yq9nLCr21f6rnNmGo06T-26" vertex="1">
          <mxGeometry width="44" height="29" as="geometry">
            <mxRectangle width="44" height="29" as="alternateBounds" />
          </mxGeometry>
        </mxCell>
        <mxCell id="yq9nLCr21f6rnNmGo06T-28" value="release_date" style="shape=partialRectangle;html=1;whiteSpace=wrap;connectable=0;fillColor=none;top=0;left=0;bottom=0;right=0;align=left;spacingLeft=6;overflow=hidden;strokeColor=inherit;fontSize=16;" parent="yq9nLCr21f6rnNmGo06T-26" vertex="1">
          <mxGeometry x="44" width="156" height="29" as="geometry">
            <mxRectangle width="156" height="29" as="alternateBounds" />
          </mxGeometry>
        </mxCell>
        <mxCell id="yq9nLCr21f6rnNmGo06T-23" style="shape=tableRow;horizontal=0;startSize=0;swimlaneHead=0;swimlaneBody=0;top=0;left=0;bottom=0;right=0;collapsible=0;dropTarget=0;fillColor=none;points=[[0,0.5],[1,0.5]];portConstraint=eastwest;strokeColor=inherit;fontSize=16;" parent="QTCGtiCho6-xsiTmYkx_-31" vertex="1">
          <mxGeometry y="241" width="200" height="29" as="geometry" />
        </mxCell>
        <mxCell id="yq9nLCr21f6rnNmGo06T-24" style="shape=partialRectangle;html=1;whiteSpace=wrap;connectable=0;fillColor=none;top=0;left=0;bottom=0;right=0;overflow=hidden;strokeColor=inherit;fontSize=16;fontStyle=1" parent="yq9nLCr21f6rnNmGo06T-23" vertex="1">
          <mxGeometry width="44" height="29" as="geometry">
            <mxRectangle width="44" height="29" as="alternateBounds" />
          </mxGeometry>
        </mxCell>
        <mxCell id="yq9nLCr21f6rnNmGo06T-25" value="length" style="shape=partialRectangle;html=1;whiteSpace=wrap;connectable=0;fillColor=none;top=0;left=0;bottom=0;right=0;align=left;spacingLeft=6;overflow=hidden;strokeColor=inherit;fontSize=16;" parent="yq9nLCr21f6rnNmGo06T-23" vertex="1">
          <mxGeometry x="44" width="156" height="29" as="geometry">
            <mxRectangle width="156" height="29" as="alternateBounds" />
          </mxGeometry>
        </mxCell>
        <mxCell id="yq9nLCr21f6rnNmGo06T-20" style="shape=tableRow;horizontal=0;startSize=0;swimlaneHead=0;swimlaneBody=0;top=0;left=0;bottom=0;right=0;collapsible=0;dropTarget=0;fillColor=none;points=[[0,0.5],[1,0.5]];portConstraint=eastwest;strokeColor=inherit;fontSize=16;" parent="QTCGtiCho6-xsiTmYkx_-31" vertex="1">
          <mxGeometry y="270" width="200" height="29" as="geometry" />
        </mxCell>
        <mxCell id="yq9nLCr21f6rnNmGo06T-21" value="FK" style="shape=partialRectangle;html=1;whiteSpace=wrap;connectable=0;fillColor=none;top=0;left=0;bottom=0;right=0;overflow=hidden;strokeColor=inherit;fontSize=16;fontStyle=1" parent="yq9nLCr21f6rnNmGo06T-20" vertex="1">
          <mxGeometry width="44" height="29" as="geometry">
            <mxRectangle width="44" height="29" as="alternateBounds" />
          </mxGeometry>
        </mxCell>
        <mxCell id="yq9nLCr21f6rnNmGo06T-22" value="genre_id" style="shape=partialRectangle;html=1;whiteSpace=wrap;connectable=0;fillColor=none;top=0;left=0;bottom=0;right=0;align=left;spacingLeft=6;overflow=hidden;strokeColor=inherit;fontSize=16;" parent="yq9nLCr21f6rnNmGo06T-20" vertex="1">
          <mxGeometry x="44" width="156" height="29" as="geometry">
            <mxRectangle width="156" height="29" as="alternateBounds" />
          </mxGeometry>
        </mxCell>
        <mxCell id="QTCGtiCho6-xsiTmYkx_-70" value="genres" style="shape=table;startSize=30;container=1;collapsible=0;childLayout=tableLayout;fixedRows=1;rowLines=0;fontStyle=1;strokeColor=default;fontSize=16;" parent="1" vertex="1">
          <mxGeometry x="1320" y="40" width="200" height="212" as="geometry" />
        </mxCell>
        <mxCell id="QTCGtiCho6-xsiTmYkx_-71" value="" style="shape=tableRow;horizontal=0;startSize=0;swimlaneHead=0;swimlaneBody=0;top=0;left=0;bottom=0;right=0;collapsible=0;dropTarget=0;fillColor=none;points=[[0,0.5],[1,0.5]];portConstraint=eastwest;strokeColor=inherit;fontSize=16;" parent="QTCGtiCho6-xsiTmYkx_-70" vertex="1">
          <mxGeometry y="30" width="200" height="30" as="geometry" />
        </mxCell>
        <mxCell id="QTCGtiCho6-xsiTmYkx_-72" value="&lt;b&gt;PK&lt;/b&gt;" style="shape=partialRectangle;html=1;whiteSpace=wrap;connectable=0;fillColor=none;top=0;left=0;bottom=0;right=0;overflow=hidden;pointerEvents=1;strokeColor=inherit;fontSize=16;" parent="QTCGtiCho6-xsiTmYkx_-71" vertex="1">
          <mxGeometry width="44" height="30" as="geometry">
            <mxRectangle width="44" height="30" as="alternateBounds" />
          </mxGeometry>
        </mxCell>
        <mxCell id="QTCGtiCho6-xsiTmYkx_-73" value="id" style="shape=partialRectangle;html=1;whiteSpace=wrap;connectable=0;fillColor=none;top=0;left=0;bottom=0;right=0;align=left;spacingLeft=6;overflow=hidden;strokeColor=inherit;fontSize=16;" parent="QTCGtiCho6-xsiTmYkx_-71" vertex="1">
          <mxGeometry x="44" width="156" height="30" as="geometry">
            <mxRectangle width="156" height="30" as="alternateBounds" />
          </mxGeometry>
        </mxCell>
        <mxCell id="QTCGtiCho6-xsiTmYkx_-74" value="" style="shape=tableRow;horizontal=0;startSize=0;swimlaneHead=0;swimlaneBody=0;top=0;left=0;bottom=0;right=0;collapsible=0;dropTarget=0;fillColor=none;points=[[0,0.5],[1,0.5]];portConstraint=eastwest;strokeColor=inherit;fontSize=16;" parent="QTCGtiCho6-xsiTmYkx_-70" vertex="1">
          <mxGeometry y="60" width="200" height="36" as="geometry" />
        </mxCell>
        <mxCell id="QTCGtiCho6-xsiTmYkx_-75" value="" style="shape=partialRectangle;html=1;whiteSpace=wrap;connectable=0;fillColor=none;top=0;left=0;bottom=0;right=0;overflow=hidden;strokeColor=inherit;fontSize=16;" parent="QTCGtiCho6-xsiTmYkx_-74" vertex="1">
          <mxGeometry width="44" height="36" as="geometry">
            <mxRectangle width="44" height="36" as="alternateBounds" />
          </mxGeometry>
        </mxCell>
        <mxCell id="QTCGtiCho6-xsiTmYkx_-76" value="created_at" style="shape=partialRectangle;html=1;whiteSpace=wrap;connectable=0;fillColor=none;top=0;left=0;bottom=0;right=0;align=left;spacingLeft=6;overflow=hidden;strokeColor=inherit;fontSize=16;" parent="QTCGtiCho6-xsiTmYkx_-74" vertex="1">
          <mxGeometry x="44" width="156" height="36" as="geometry">
            <mxRectangle width="156" height="36" as="alternateBounds" />
          </mxGeometry>
        </mxCell>
        <mxCell id="QTCGtiCho6-xsiTmYkx_-77" value="" style="shape=tableRow;horizontal=0;startSize=0;swimlaneHead=0;swimlaneBody=0;top=0;left=0;bottom=0;right=0;collapsible=0;dropTarget=0;fillColor=none;points=[[0,0.5],[1,0.5]];portConstraint=eastwest;strokeColor=inherit;fontSize=16;" parent="QTCGtiCho6-xsiTmYkx_-70" vertex="1">
          <mxGeometry y="96" width="200" height="29" as="geometry" />
        </mxCell>
        <mxCell id="QTCGtiCho6-xsiTmYkx_-78" value="" style="shape=partialRectangle;html=1;whiteSpace=wrap;connectable=0;fillColor=none;top=0;left=0;bottom=0;right=0;overflow=hidden;strokeColor=inherit;fontSize=16;" parent="QTCGtiCho6-xsiTmYkx_-77" vertex="1">
          <mxGeometry width="44" height="29" as="geometry">
            <mxRectangle width="44" height="29" as="alternateBounds" />
          </mxGeometry>
        </mxCell>
        <mxCell id="QTCGtiCho6-xsiTmYkx_-79" value="updated_at" style="shape=partialRectangle;html=1;whiteSpace=wrap;connectable=0;fillColor=none;top=0;left=0;bottom=0;right=0;align=left;spacingLeft=6;overflow=hidden;strokeColor=inherit;fontSize=16;" parent="QTCGtiCho6-xsiTmYkx_-77" vertex="1">
          <mxGeometry x="44" width="156" height="29" as="geometry">
            <mxRectangle width="156" height="29" as="alternateBounds" />
          </mxGeometry>
        </mxCell>
        <mxCell id="QTCGtiCho6-xsiTmYkx_-80" style="shape=tableRow;horizontal=0;startSize=0;swimlaneHead=0;swimlaneBody=0;top=0;left=0;bottom=0;right=0;collapsible=0;dropTarget=0;fillColor=none;points=[[0,0.5],[1,0.5]];portConstraint=eastwest;strokeColor=inherit;fontSize=16;" parent="QTCGtiCho6-xsiTmYkx_-70" vertex="1">
          <mxGeometry y="125" width="200" height="29" as="geometry" />
        </mxCell>
        <mxCell id="QTCGtiCho6-xsiTmYkx_-81" value="" style="shape=partialRectangle;html=1;whiteSpace=wrap;connectable=0;fillColor=none;top=0;left=0;bottom=0;right=0;overflow=hidden;strokeColor=inherit;fontSize=16;" parent="QTCGtiCho6-xsiTmYkx_-80" vertex="1">
          <mxGeometry width="44" height="29" as="geometry">
            <mxRectangle width="44" height="29" as="alternateBounds" />
          </mxGeometry>
        </mxCell>
        <mxCell id="QTCGtiCho6-xsiTmYkx_-82" value="name" style="shape=partialRectangle;html=1;whiteSpace=wrap;connectable=0;fillColor=none;top=0;left=0;bottom=0;right=0;align=left;spacingLeft=6;overflow=hidden;strokeColor=inherit;fontSize=16;" parent="QTCGtiCho6-xsiTmYkx_-80" vertex="1">
          <mxGeometry x="44" width="156" height="29" as="geometry">
            <mxRectangle width="156" height="29" as="alternateBounds" />
          </mxGeometry>
        </mxCell>
        <mxCell id="QTCGtiCho6-xsiTmYkx_-83" style="shape=tableRow;horizontal=0;startSize=0;swimlaneHead=0;swimlaneBody=0;top=0;left=0;bottom=0;right=0;collapsible=0;dropTarget=0;fillColor=none;points=[[0,0.5],[1,0.5]];portConstraint=eastwest;strokeColor=inherit;fontSize=16;" parent="QTCGtiCho6-xsiTmYkx_-70" vertex="1">
          <mxGeometry y="154" width="200" height="29" as="geometry" />
        </mxCell>
        <mxCell id="QTCGtiCho6-xsiTmYkx_-84" value="&lt;b&gt;&lt;font style=&quot;font-size: 10px;&quot;&gt;UK&lt;/font&gt;&lt;/b&gt;" style="shape=partialRectangle;html=1;whiteSpace=wrap;connectable=0;fillColor=none;top=0;left=0;bottom=0;right=0;overflow=hidden;strokeColor=inherit;fontSize=16;" parent="QTCGtiCho6-xsiTmYkx_-83" vertex="1">
          <mxGeometry width="44" height="29" as="geometry">
            <mxRectangle width="44" height="29" as="alternateBounds" />
          </mxGeometry>
        </mxCell>
        <mxCell id="QTCGtiCho6-xsiTmYkx_-85" value="ranking" style="shape=partialRectangle;html=1;whiteSpace=wrap;connectable=0;fillColor=none;top=0;left=0;bottom=0;right=0;align=left;spacingLeft=6;overflow=hidden;strokeColor=inherit;fontSize=16;" parent="QTCGtiCho6-xsiTmYkx_-83" vertex="1">
          <mxGeometry x="44" width="156" height="29" as="geometry">
            <mxRectangle width="156" height="29" as="alternateBounds" />
          </mxGeometry>
        </mxCell>
        <mxCell id="QTCGtiCho6-xsiTmYkx_-100" style="shape=tableRow;horizontal=0;startSize=0;swimlaneHead=0;swimlaneBody=0;top=0;left=0;bottom=0;right=0;collapsible=0;dropTarget=0;fillColor=none;points=[[0,0.5],[1,0.5]];portConstraint=eastwest;strokeColor=inherit;fontSize=16;" parent="QTCGtiCho6-xsiTmYkx_-70" vertex="1">
          <mxGeometry y="183" width="200" height="29" as="geometry" />
        </mxCell>
        <mxCell id="QTCGtiCho6-xsiTmYkx_-101" style="shape=partialRectangle;html=1;whiteSpace=wrap;connectable=0;fillColor=none;top=0;left=0;bottom=0;right=0;overflow=hidden;strokeColor=inherit;fontSize=16;" parent="QTCGtiCho6-xsiTmYkx_-100" vertex="1">
          <mxGeometry width="44" height="29" as="geometry">
            <mxRectangle width="44" height="29" as="alternateBounds" />
          </mxGeometry>
        </mxCell>
        <mxCell id="QTCGtiCho6-xsiTmYkx_-102" value="active" style="shape=partialRectangle;html=1;whiteSpace=wrap;connectable=0;fillColor=none;top=0;left=0;bottom=0;right=0;align=left;spacingLeft=6;overflow=hidden;strokeColor=inherit;fontSize=16;" parent="QTCGtiCho6-xsiTmYkx_-100" vertex="1">
          <mxGeometry x="44" width="156" height="29" as="geometry">
            <mxRectangle width="156" height="29" as="alternateBounds" />
          </mxGeometry>
        </mxCell>
        <mxCell id="QTCGtiCho6-xsiTmYkx_-93" value="migrations" style="shape=table;startSize=30;container=1;collapsible=0;childLayout=tableLayout;fixedRows=1;rowLines=0;fontStyle=1;strokeColor=default;fontSize=16;" parent="1" vertex="1">
          <mxGeometry x="40" y="560" width="200" height="132" as="geometry" />
        </mxCell>
        <mxCell id="QTCGtiCho6-xsiTmYkx_-94" value="" style="shape=tableRow;horizontal=0;startSize=0;swimlaneHead=0;swimlaneBody=0;top=0;left=0;bottom=0;right=0;collapsible=0;dropTarget=0;fillColor=none;points=[[0,0.5],[1,0.5]];portConstraint=eastwest;strokeColor=inherit;fontSize=16;" parent="QTCGtiCho6-xsiTmYkx_-93" vertex="1">
          <mxGeometry y="30" width="200" height="30" as="geometry" />
        </mxCell>
        <mxCell id="QTCGtiCho6-xsiTmYkx_-95" value="&lt;b&gt;PK&lt;/b&gt;" style="shape=partialRectangle;html=1;whiteSpace=wrap;connectable=0;fillColor=none;top=0;left=0;bottom=0;right=0;overflow=hidden;pointerEvents=1;strokeColor=inherit;fontSize=16;" parent="QTCGtiCho6-xsiTmYkx_-94" vertex="1">
          <mxGeometry width="44" height="30" as="geometry">
            <mxRectangle width="44" height="30" as="alternateBounds" />
          </mxGeometry>
        </mxCell>
        <mxCell id="QTCGtiCho6-xsiTmYkx_-96" value="id" style="shape=partialRectangle;html=1;whiteSpace=wrap;connectable=0;fillColor=none;top=0;left=0;bottom=0;right=0;align=left;spacingLeft=6;overflow=hidden;strokeColor=inherit;fontSize=16;" parent="QTCGtiCho6-xsiTmYkx_-94" vertex="1">
          <mxGeometry x="44" width="156" height="30" as="geometry">
            <mxRectangle width="156" height="30" as="alternateBounds" />
          </mxGeometry>
        </mxCell>
        <mxCell id="QTCGtiCho6-xsiTmYkx_-97" value="" style="shape=tableRow;horizontal=0;startSize=0;swimlaneHead=0;swimlaneBody=0;top=0;left=0;bottom=0;right=0;collapsible=0;dropTarget=0;fillColor=none;points=[[0,0.5],[1,0.5]];portConstraint=eastwest;strokeColor=inherit;fontSize=16;" parent="QTCGtiCho6-xsiTmYkx_-93" vertex="1">
          <mxGeometry y="60" width="200" height="36" as="geometry" />
        </mxCell>
        <mxCell id="QTCGtiCho6-xsiTmYkx_-98" value="" style="shape=partialRectangle;html=1;whiteSpace=wrap;connectable=0;fillColor=none;top=0;left=0;bottom=0;right=0;overflow=hidden;strokeColor=inherit;fontSize=16;" parent="QTCGtiCho6-xsiTmYkx_-97" vertex="1">
          <mxGeometry width="44" height="36" as="geometry">
            <mxRectangle width="44" height="36" as="alternateBounds" />
          </mxGeometry>
        </mxCell>
        <mxCell id="QTCGtiCho6-xsiTmYkx_-99" value="migration" style="shape=partialRectangle;html=1;whiteSpace=wrap;connectable=0;fillColor=none;top=0;left=0;bottom=0;right=0;align=left;spacingLeft=6;overflow=hidden;strokeColor=inherit;fontSize=16;" parent="QTCGtiCho6-xsiTmYkx_-97" vertex="1">
          <mxGeometry x="44" width="156" height="36" as="geometry">
            <mxRectangle width="156" height="36" as="alternateBounds" />
          </mxGeometry>
        </mxCell>
        <mxCell id="yq9nLCr21f6rnNmGo06T-150" style="shape=tableRow;horizontal=0;startSize=0;swimlaneHead=0;swimlaneBody=0;top=0;left=0;bottom=0;right=0;collapsible=0;dropTarget=0;fillColor=none;points=[[0,0.5],[1,0.5]];portConstraint=eastwest;strokeColor=inherit;fontSize=16;" parent="QTCGtiCho6-xsiTmYkx_-93" vertex="1">
          <mxGeometry y="96" width="200" height="36" as="geometry" />
        </mxCell>
        <mxCell id="yq9nLCr21f6rnNmGo06T-151" style="shape=partialRectangle;html=1;whiteSpace=wrap;connectable=0;fillColor=none;top=0;left=0;bottom=0;right=0;overflow=hidden;strokeColor=inherit;fontSize=16;" parent="yq9nLCr21f6rnNmGo06T-150" vertex="1">
          <mxGeometry width="44" height="36" as="geometry">
            <mxRectangle width="44" height="36" as="alternateBounds" />
          </mxGeometry>
        </mxCell>
        <mxCell id="yq9nLCr21f6rnNmGo06T-152" value="batch" style="shape=partialRectangle;html=1;whiteSpace=wrap;connectable=0;fillColor=none;top=0;left=0;bottom=0;right=0;align=left;spacingLeft=6;overflow=hidden;strokeColor=inherit;fontSize=16;" parent="yq9nLCr21f6rnNmGo06T-150" vertex="1">
          <mxGeometry x="44" width="156" height="36" as="geometry">
            <mxRectangle width="156" height="36" as="alternateBounds" />
          </mxGeometry>
        </mxCell>
        <mxCell id="yq9nLCr21f6rnNmGo06T-1" value="actors" style="shape=table;startSize=30;container=1;collapsible=0;childLayout=tableLayout;fixedRows=1;rowLines=0;fontStyle=1;strokeColor=default;fontSize=16;" parent="1" vertex="1">
          <mxGeometry x="360" y="188" width="200" height="241" as="geometry" />
        </mxCell>
        <mxCell id="yq9nLCr21f6rnNmGo06T-2" value="" style="shape=tableRow;horizontal=0;startSize=0;swimlaneHead=0;swimlaneBody=0;top=0;left=0;bottom=0;right=0;collapsible=0;dropTarget=0;fillColor=none;points=[[0,0.5],[1,0.5]];portConstraint=eastwest;strokeColor=inherit;fontSize=16;" parent="yq9nLCr21f6rnNmGo06T-1" vertex="1">
          <mxGeometry y="30" width="200" height="30" as="geometry" />
        </mxCell>
        <mxCell id="yq9nLCr21f6rnNmGo06T-3" value="&lt;b&gt;PK&lt;/b&gt;" style="shape=partialRectangle;html=1;whiteSpace=wrap;connectable=0;fillColor=none;top=0;left=0;bottom=0;right=0;overflow=hidden;pointerEvents=1;strokeColor=inherit;fontSize=16;" parent="yq9nLCr21f6rnNmGo06T-2" vertex="1">
          <mxGeometry width="44" height="30" as="geometry">
            <mxRectangle width="44" height="30" as="alternateBounds" />
          </mxGeometry>
        </mxCell>
        <mxCell id="yq9nLCr21f6rnNmGo06T-4" value="id" style="shape=partialRectangle;html=1;whiteSpace=wrap;connectable=0;fillColor=none;top=0;left=0;bottom=0;right=0;align=left;spacingLeft=6;overflow=hidden;strokeColor=inherit;fontSize=16;" parent="yq9nLCr21f6rnNmGo06T-2" vertex="1">
          <mxGeometry x="44" width="156" height="30" as="geometry">
            <mxRectangle width="156" height="30" as="alternateBounds" />
          </mxGeometry>
        </mxCell>
        <mxCell id="yq9nLCr21f6rnNmGo06T-5" value="" style="shape=tableRow;horizontal=0;startSize=0;swimlaneHead=0;swimlaneBody=0;top=0;left=0;bottom=0;right=0;collapsible=0;dropTarget=0;fillColor=none;points=[[0,0.5],[1,0.5]];portConstraint=eastwest;strokeColor=inherit;fontSize=16;" parent="yq9nLCr21f6rnNmGo06T-1" vertex="1">
          <mxGeometry y="60" width="200" height="36" as="geometry" />
        </mxCell>
        <mxCell id="yq9nLCr21f6rnNmGo06T-6" value="" style="shape=partialRectangle;html=1;whiteSpace=wrap;connectable=0;fillColor=none;top=0;left=0;bottom=0;right=0;overflow=hidden;strokeColor=inherit;fontSize=16;" parent="yq9nLCr21f6rnNmGo06T-5" vertex="1">
          <mxGeometry width="44" height="36" as="geometry">
            <mxRectangle width="44" height="36" as="alternateBounds" />
          </mxGeometry>
        </mxCell>
        <mxCell id="yq9nLCr21f6rnNmGo06T-7" value="created_at" style="shape=partialRectangle;html=1;whiteSpace=wrap;connectable=0;fillColor=none;top=0;left=0;bottom=0;right=0;align=left;spacingLeft=6;overflow=hidden;strokeColor=inherit;fontSize=16;" parent="yq9nLCr21f6rnNmGo06T-5" vertex="1">
          <mxGeometry x="44" width="156" height="36" as="geometry">
            <mxRectangle width="156" height="36" as="alternateBounds" />
          </mxGeometry>
        </mxCell>
        <mxCell id="yq9nLCr21f6rnNmGo06T-8" value="" style="shape=tableRow;horizontal=0;startSize=0;swimlaneHead=0;swimlaneBody=0;top=0;left=0;bottom=0;right=0;collapsible=0;dropTarget=0;fillColor=none;points=[[0,0.5],[1,0.5]];portConstraint=eastwest;strokeColor=inherit;fontSize=16;" parent="yq9nLCr21f6rnNmGo06T-1" vertex="1">
          <mxGeometry y="96" width="200" height="29" as="geometry" />
        </mxCell>
        <mxCell id="yq9nLCr21f6rnNmGo06T-9" value="" style="shape=partialRectangle;html=1;whiteSpace=wrap;connectable=0;fillColor=none;top=0;left=0;bottom=0;right=0;overflow=hidden;strokeColor=inherit;fontSize=16;" parent="yq9nLCr21f6rnNmGo06T-8" vertex="1">
          <mxGeometry width="44" height="29" as="geometry">
            <mxRectangle width="44" height="29" as="alternateBounds" />
          </mxGeometry>
        </mxCell>
        <mxCell id="yq9nLCr21f6rnNmGo06T-10" value="updated_at" style="shape=partialRectangle;html=1;whiteSpace=wrap;connectable=0;fillColor=none;top=0;left=0;bottom=0;right=0;align=left;spacingLeft=6;overflow=hidden;strokeColor=inherit;fontSize=16;" parent="yq9nLCr21f6rnNmGo06T-8" vertex="1">
          <mxGeometry x="44" width="156" height="29" as="geometry">
            <mxRectangle width="156" height="29" as="alternateBounds" />
          </mxGeometry>
        </mxCell>
        <mxCell id="yq9nLCr21f6rnNmGo06T-11" style="shape=tableRow;horizontal=0;startSize=0;swimlaneHead=0;swimlaneBody=0;top=0;left=0;bottom=0;right=0;collapsible=0;dropTarget=0;fillColor=none;points=[[0,0.5],[1,0.5]];portConstraint=eastwest;strokeColor=inherit;fontSize=16;" parent="yq9nLCr21f6rnNmGo06T-1" vertex="1">
          <mxGeometry y="125" width="200" height="29" as="geometry" />
        </mxCell>
        <mxCell id="yq9nLCr21f6rnNmGo06T-12" value="" style="shape=partialRectangle;html=1;whiteSpace=wrap;connectable=0;fillColor=none;top=0;left=0;bottom=0;right=0;overflow=hidden;strokeColor=inherit;fontSize=16;" parent="yq9nLCr21f6rnNmGo06T-11" vertex="1">
          <mxGeometry width="44" height="29" as="geometry">
            <mxRectangle width="44" height="29" as="alternateBounds" />
          </mxGeometry>
        </mxCell>
        <mxCell id="yq9nLCr21f6rnNmGo06T-13" value="first_name" style="shape=partialRectangle;html=1;whiteSpace=wrap;connectable=0;fillColor=none;top=0;left=0;bottom=0;right=0;align=left;spacingLeft=6;overflow=hidden;strokeColor=inherit;fontSize=16;" parent="yq9nLCr21f6rnNmGo06T-11" vertex="1">
          <mxGeometry x="44" width="156" height="29" as="geometry">
            <mxRectangle width="156" height="29" as="alternateBounds" />
          </mxGeometry>
        </mxCell>
        <mxCell id="yq9nLCr21f6rnNmGo06T-14" style="shape=tableRow;horizontal=0;startSize=0;swimlaneHead=0;swimlaneBody=0;top=0;left=0;bottom=0;right=0;collapsible=0;dropTarget=0;fillColor=none;points=[[0,0.5],[1,0.5]];portConstraint=eastwest;strokeColor=inherit;fontSize=16;" parent="yq9nLCr21f6rnNmGo06T-1" vertex="1">
          <mxGeometry y="154" width="200" height="29" as="geometry" />
        </mxCell>
        <mxCell id="yq9nLCr21f6rnNmGo06T-15" value="" style="shape=partialRectangle;html=1;whiteSpace=wrap;connectable=0;fillColor=none;top=0;left=0;bottom=0;right=0;overflow=hidden;strokeColor=inherit;fontSize=16;" parent="yq9nLCr21f6rnNmGo06T-14" vertex="1">
          <mxGeometry width="44" height="29" as="geometry">
            <mxRectangle width="44" height="29" as="alternateBounds" />
          </mxGeometry>
        </mxCell>
        <mxCell id="yq9nLCr21f6rnNmGo06T-16" value="last_name" style="shape=partialRectangle;html=1;whiteSpace=wrap;connectable=0;fillColor=none;top=0;left=0;bottom=0;right=0;align=left;spacingLeft=6;overflow=hidden;strokeColor=inherit;fontSize=16;" parent="yq9nLCr21f6rnNmGo06T-14" vertex="1">
          <mxGeometry x="44" width="156" height="29" as="geometry">
            <mxRectangle width="156" height="29" as="alternateBounds" />
          </mxGeometry>
        </mxCell>
        <mxCell id="yq9nLCr21f6rnNmGo06T-17" style="shape=tableRow;horizontal=0;startSize=0;swimlaneHead=0;swimlaneBody=0;top=0;left=0;bottom=0;right=0;collapsible=0;dropTarget=0;fillColor=none;points=[[0,0.5],[1,0.5]];portConstraint=eastwest;strokeColor=inherit;fontSize=16;" parent="yq9nLCr21f6rnNmGo06T-1" vertex="1">
          <mxGeometry y="183" width="200" height="29" as="geometry" />
        </mxCell>
        <mxCell id="yq9nLCr21f6rnNmGo06T-18" style="shape=partialRectangle;html=1;whiteSpace=wrap;connectable=0;fillColor=none;top=0;left=0;bottom=0;right=0;overflow=hidden;strokeColor=inherit;fontSize=16;" parent="yq9nLCr21f6rnNmGo06T-17" vertex="1">
          <mxGeometry width="44" height="29" as="geometry">
            <mxRectangle width="44" height="29" as="alternateBounds" />
          </mxGeometry>
        </mxCell>
        <mxCell id="yq9nLCr21f6rnNmGo06T-19" value="rating" style="shape=partialRectangle;html=1;whiteSpace=wrap;connectable=0;fillColor=none;top=0;left=0;bottom=0;right=0;align=left;spacingLeft=6;overflow=hidden;strokeColor=inherit;fontSize=16;" parent="yq9nLCr21f6rnNmGo06T-17" vertex="1">
          <mxGeometry x="44" width="156" height="29" as="geometry">
            <mxRectangle width="156" height="29" as="alternateBounds" />
          </mxGeometry>
        </mxCell>
        <mxCell id="yq9nLCr21f6rnNmGo06T-143" style="shape=tableRow;horizontal=0;startSize=0;swimlaneHead=0;swimlaneBody=0;top=0;left=0;bottom=0;right=0;collapsible=0;dropTarget=0;fillColor=none;points=[[0,0.5],[1,0.5]];portConstraint=eastwest;strokeColor=inherit;fontSize=16;" parent="yq9nLCr21f6rnNmGo06T-1" vertex="1">
          <mxGeometry y="212" width="200" height="29" as="geometry" />
        </mxCell>
        <mxCell id="yq9nLCr21f6rnNmGo06T-144" value="&lt;b&gt;FK&lt;/b&gt;" style="shape=partialRectangle;html=1;whiteSpace=wrap;connectable=0;fillColor=none;top=0;left=0;bottom=0;right=0;overflow=hidden;strokeColor=inherit;fontSize=16;" parent="yq9nLCr21f6rnNmGo06T-143" vertex="1">
          <mxGeometry width="44" height="29" as="geometry">
            <mxRectangle width="44" height="29" as="alternateBounds" />
          </mxGeometry>
        </mxCell>
        <mxCell id="yq9nLCr21f6rnNmGo06T-145" value="favorite_movide_id" style="shape=partialRectangle;html=1;whiteSpace=wrap;connectable=0;fillColor=none;top=0;left=0;bottom=0;right=0;align=left;spacingLeft=6;overflow=hidden;strokeColor=inherit;fontSize=16;" parent="yq9nLCr21f6rnNmGo06T-143" vertex="1">
          <mxGeometry x="44" width="156" height="29" as="geometry">
            <mxRectangle width="156" height="29" as="alternateBounds" />
          </mxGeometry>
        </mxCell>
        <mxCell id="yq9nLCr21f6rnNmGo06T-29" style="edgeStyle=orthogonalEdgeStyle;rounded=0;orthogonalLoop=1;jettySize=auto;html=1;entryX=0.011;entryY=0.225;entryDx=0;entryDy=0;strokeColor=default;strokeWidth=2;align=center;verticalAlign=middle;fontFamily=Helvetica;fontSize=11;fontColor=default;labelBackgroundColor=default;startArrow=ERoneToMany;startFill=0;startSize=8;endArrow=ERone;endFill=0;endSize=8;sourcePerimeterSpacing=13;targetPerimeterSpacing=13;exitX=1;exitY=0.5;exitDx=0;exitDy=0;entryPerimeter=0;" parent="1" source="yq9nLCr21f6rnNmGo06T-20" target="QTCGtiCho6-xsiTmYkx_-71" edge="1">
          <mxGeometry relative="1" as="geometry">
            <Array as="points">
              <mxPoint x="910" y="325" />
              <mxPoint x="910" y="77" />
            </Array>
          </mxGeometry>
        </mxCell>
        <mxCell id="yq9nLCr21f6rnNmGo06T-30" value="series" style="shape=table;startSize=30;container=1;collapsible=0;childLayout=tableLayout;fixedRows=1;rowLines=0;fontStyle=1;strokeColor=default;fontSize=16;" parent="1" vertex="1">
          <mxGeometry x="1000" y="390" width="200" height="241" as="geometry" />
        </mxCell>
        <mxCell id="yq9nLCr21f6rnNmGo06T-31" value="" style="shape=tableRow;horizontal=0;startSize=0;swimlaneHead=0;swimlaneBody=0;top=0;left=0;bottom=0;right=0;collapsible=0;dropTarget=0;fillColor=none;points=[[0,0.5],[1,0.5]];portConstraint=eastwest;strokeColor=inherit;fontSize=16;" parent="yq9nLCr21f6rnNmGo06T-30" vertex="1">
          <mxGeometry y="30" width="200" height="30" as="geometry" />
        </mxCell>
        <mxCell id="yq9nLCr21f6rnNmGo06T-32" value="&lt;b&gt;PK&lt;/b&gt;" style="shape=partialRectangle;html=1;whiteSpace=wrap;connectable=0;fillColor=none;top=0;left=0;bottom=0;right=0;overflow=hidden;pointerEvents=1;strokeColor=inherit;fontSize=16;" parent="yq9nLCr21f6rnNmGo06T-31" vertex="1">
          <mxGeometry width="44" height="30" as="geometry">
            <mxRectangle width="44" height="30" as="alternateBounds" />
          </mxGeometry>
        </mxCell>
        <mxCell id="yq9nLCr21f6rnNmGo06T-33" value="id" style="shape=partialRectangle;html=1;whiteSpace=wrap;connectable=0;fillColor=none;top=0;left=0;bottom=0;right=0;align=left;spacingLeft=6;overflow=hidden;strokeColor=inherit;fontSize=16;" parent="yq9nLCr21f6rnNmGo06T-31" vertex="1">
          <mxGeometry x="44" width="156" height="30" as="geometry">
            <mxRectangle width="156" height="30" as="alternateBounds" />
          </mxGeometry>
        </mxCell>
        <mxCell id="yq9nLCr21f6rnNmGo06T-34" value="" style="shape=tableRow;horizontal=0;startSize=0;swimlaneHead=0;swimlaneBody=0;top=0;left=0;bottom=0;right=0;collapsible=0;dropTarget=0;fillColor=none;points=[[0,0.5],[1,0.5]];portConstraint=eastwest;strokeColor=inherit;fontSize=16;" parent="yq9nLCr21f6rnNmGo06T-30" vertex="1">
          <mxGeometry y="60" width="200" height="36" as="geometry" />
        </mxCell>
        <mxCell id="yq9nLCr21f6rnNmGo06T-35" value="" style="shape=partialRectangle;html=1;whiteSpace=wrap;connectable=0;fillColor=none;top=0;left=0;bottom=0;right=0;overflow=hidden;strokeColor=inherit;fontSize=16;" parent="yq9nLCr21f6rnNmGo06T-34" vertex="1">
          <mxGeometry width="44" height="36" as="geometry">
            <mxRectangle width="44" height="36" as="alternateBounds" />
          </mxGeometry>
        </mxCell>
        <mxCell id="yq9nLCr21f6rnNmGo06T-36" value="created_at" style="shape=partialRectangle;html=1;whiteSpace=wrap;connectable=0;fillColor=none;top=0;left=0;bottom=0;right=0;align=left;spacingLeft=6;overflow=hidden;strokeColor=inherit;fontSize=16;" parent="yq9nLCr21f6rnNmGo06T-34" vertex="1">
          <mxGeometry x="44" width="156" height="36" as="geometry">
            <mxRectangle width="156" height="36" as="alternateBounds" />
          </mxGeometry>
        </mxCell>
        <mxCell id="yq9nLCr21f6rnNmGo06T-37" value="" style="shape=tableRow;horizontal=0;startSize=0;swimlaneHead=0;swimlaneBody=0;top=0;left=0;bottom=0;right=0;collapsible=0;dropTarget=0;fillColor=none;points=[[0,0.5],[1,0.5]];portConstraint=eastwest;strokeColor=inherit;fontSize=16;" parent="yq9nLCr21f6rnNmGo06T-30" vertex="1">
          <mxGeometry y="96" width="200" height="29" as="geometry" />
        </mxCell>
        <mxCell id="yq9nLCr21f6rnNmGo06T-38" value="" style="shape=partialRectangle;html=1;whiteSpace=wrap;connectable=0;fillColor=none;top=0;left=0;bottom=0;right=0;overflow=hidden;strokeColor=inherit;fontSize=16;" parent="yq9nLCr21f6rnNmGo06T-37" vertex="1">
          <mxGeometry width="44" height="29" as="geometry">
            <mxRectangle width="44" height="29" as="alternateBounds" />
          </mxGeometry>
        </mxCell>
        <mxCell id="yq9nLCr21f6rnNmGo06T-39" value="updated_at" style="shape=partialRectangle;html=1;whiteSpace=wrap;connectable=0;fillColor=none;top=0;left=0;bottom=0;right=0;align=left;spacingLeft=6;overflow=hidden;strokeColor=inherit;fontSize=16;" parent="yq9nLCr21f6rnNmGo06T-37" vertex="1">
          <mxGeometry x="44" width="156" height="29" as="geometry">
            <mxRectangle width="156" height="29" as="alternateBounds" />
          </mxGeometry>
        </mxCell>
        <mxCell id="yq9nLCr21f6rnNmGo06T-40" style="shape=tableRow;horizontal=0;startSize=0;swimlaneHead=0;swimlaneBody=0;top=0;left=0;bottom=0;right=0;collapsible=0;dropTarget=0;fillColor=none;points=[[0,0.5],[1,0.5]];portConstraint=eastwest;strokeColor=inherit;fontSize=16;" parent="yq9nLCr21f6rnNmGo06T-30" vertex="1">
          <mxGeometry y="125" width="200" height="29" as="geometry" />
        </mxCell>
        <mxCell id="yq9nLCr21f6rnNmGo06T-41" value="" style="shape=partialRectangle;html=1;whiteSpace=wrap;connectable=0;fillColor=none;top=0;left=0;bottom=0;right=0;overflow=hidden;strokeColor=inherit;fontSize=16;" parent="yq9nLCr21f6rnNmGo06T-40" vertex="1">
          <mxGeometry width="44" height="29" as="geometry">
            <mxRectangle width="44" height="29" as="alternateBounds" />
          </mxGeometry>
        </mxCell>
        <mxCell id="yq9nLCr21f6rnNmGo06T-42" value="title" style="shape=partialRectangle;html=1;whiteSpace=wrap;connectable=0;fillColor=none;top=0;left=0;bottom=0;right=0;align=left;spacingLeft=6;overflow=hidden;strokeColor=inherit;fontSize=16;" parent="yq9nLCr21f6rnNmGo06T-40" vertex="1">
          <mxGeometry x="44" width="156" height="29" as="geometry">
            <mxRectangle width="156" height="29" as="alternateBounds" />
          </mxGeometry>
        </mxCell>
        <mxCell id="yq9nLCr21f6rnNmGo06T-220" style="shape=tableRow;horizontal=0;startSize=0;swimlaneHead=0;swimlaneBody=0;top=0;left=0;bottom=0;right=0;collapsible=0;dropTarget=0;fillColor=none;points=[[0,0.5],[1,0.5]];portConstraint=eastwest;strokeColor=inherit;fontSize=16;" parent="yq9nLCr21f6rnNmGo06T-30" vertex="1">
          <mxGeometry y="154" width="200" height="29" as="geometry" />
        </mxCell>
        <mxCell id="yq9nLCr21f6rnNmGo06T-221" value="" style="shape=partialRectangle;html=1;whiteSpace=wrap;connectable=0;fillColor=none;top=0;left=0;bottom=0;right=0;overflow=hidden;strokeColor=inherit;fontSize=16;" parent="yq9nLCr21f6rnNmGo06T-220" vertex="1">
          <mxGeometry width="44" height="29" as="geometry">
            <mxRectangle width="44" height="29" as="alternateBounds" />
          </mxGeometry>
        </mxCell>
        <mxCell id="yq9nLCr21f6rnNmGo06T-222" value="release_date" style="shape=partialRectangle;html=1;whiteSpace=wrap;connectable=0;fillColor=none;top=0;left=0;bottom=0;right=0;align=left;spacingLeft=6;overflow=hidden;strokeColor=inherit;fontSize=16;" parent="yq9nLCr21f6rnNmGo06T-220" vertex="1">
          <mxGeometry x="44" width="156" height="29" as="geometry">
            <mxRectangle width="156" height="29" as="alternateBounds" />
          </mxGeometry>
        </mxCell>
        <mxCell id="yq9nLCr21f6rnNmGo06T-223" style="shape=tableRow;horizontal=0;startSize=0;swimlaneHead=0;swimlaneBody=0;top=0;left=0;bottom=0;right=0;collapsible=0;dropTarget=0;fillColor=none;points=[[0,0.5],[1,0.5]];portConstraint=eastwest;strokeColor=inherit;fontSize=16;" parent="yq9nLCr21f6rnNmGo06T-30" vertex="1">
          <mxGeometry y="183" width="200" height="29" as="geometry" />
        </mxCell>
        <mxCell id="yq9nLCr21f6rnNmGo06T-224" value="" style="shape=partialRectangle;html=1;whiteSpace=wrap;connectable=0;fillColor=none;top=0;left=0;bottom=0;right=0;overflow=hidden;strokeColor=inherit;fontSize=16;" parent="yq9nLCr21f6rnNmGo06T-223" vertex="1">
          <mxGeometry width="44" height="29" as="geometry">
            <mxRectangle width="44" height="29" as="alternateBounds" />
          </mxGeometry>
        </mxCell>
        <mxCell id="yq9nLCr21f6rnNmGo06T-225" value="end_date" style="shape=partialRectangle;html=1;whiteSpace=wrap;connectable=0;fillColor=none;top=0;left=0;bottom=0;right=0;align=left;spacingLeft=6;overflow=hidden;strokeColor=inherit;fontSize=16;" parent="yq9nLCr21f6rnNmGo06T-223" vertex="1">
          <mxGeometry x="44" width="156" height="29" as="geometry">
            <mxRectangle width="156" height="29" as="alternateBounds" />
          </mxGeometry>
        </mxCell>
        <mxCell id="yq9nLCr21f6rnNmGo06T-43" style="shape=tableRow;horizontal=0;startSize=0;swimlaneHead=0;swimlaneBody=0;top=0;left=0;bottom=0;right=0;collapsible=0;dropTarget=0;fillColor=none;points=[[0,0.5],[1,0.5]];portConstraint=eastwest;strokeColor=inherit;fontSize=16;" parent="yq9nLCr21f6rnNmGo06T-30" vertex="1">
          <mxGeometry y="212" width="200" height="29" as="geometry" />
        </mxCell>
        <mxCell id="yq9nLCr21f6rnNmGo06T-44" value="&lt;b&gt;FK&lt;/b&gt;" style="shape=partialRectangle;html=1;whiteSpace=wrap;connectable=0;fillColor=none;top=0;left=0;bottom=0;right=0;overflow=hidden;strokeColor=inherit;fontSize=16;" parent="yq9nLCr21f6rnNmGo06T-43" vertex="1">
          <mxGeometry width="44" height="29" as="geometry">
            <mxRectangle width="44" height="29" as="alternateBounds" />
          </mxGeometry>
        </mxCell>
        <mxCell id="yq9nLCr21f6rnNmGo06T-45" value="genre_id" style="shape=partialRectangle;html=1;whiteSpace=wrap;connectable=0;fillColor=none;top=0;left=0;bottom=0;right=0;align=left;spacingLeft=6;overflow=hidden;strokeColor=inherit;fontSize=16;" parent="yq9nLCr21f6rnNmGo06T-43" vertex="1">
          <mxGeometry x="44" width="156" height="29" as="geometry">
            <mxRectangle width="156" height="29" as="alternateBounds" />
          </mxGeometry>
        </mxCell>
        <mxCell id="yq9nLCr21f6rnNmGo06T-52" value="seasons" style="shape=table;startSize=30;container=1;collapsible=0;childLayout=tableLayout;fixedRows=1;rowLines=0;fontStyle=1;strokeColor=default;fontSize=16;" parent="1" vertex="1">
          <mxGeometry x="680" y="390" width="200" height="270" as="geometry" />
        </mxCell>
        <mxCell id="yq9nLCr21f6rnNmGo06T-53" value="" style="shape=tableRow;horizontal=0;startSize=0;swimlaneHead=0;swimlaneBody=0;top=0;left=0;bottom=0;right=0;collapsible=0;dropTarget=0;fillColor=none;points=[[0,0.5],[1,0.5]];portConstraint=eastwest;strokeColor=inherit;fontSize=16;" parent="yq9nLCr21f6rnNmGo06T-52" vertex="1">
          <mxGeometry y="30" width="200" height="30" as="geometry" />
        </mxCell>
        <mxCell id="yq9nLCr21f6rnNmGo06T-54" value="&lt;b&gt;PK&lt;/b&gt;" style="shape=partialRectangle;html=1;whiteSpace=wrap;connectable=0;fillColor=none;top=0;left=0;bottom=0;right=0;overflow=hidden;pointerEvents=1;strokeColor=inherit;fontSize=16;" parent="yq9nLCr21f6rnNmGo06T-53" vertex="1">
          <mxGeometry width="44" height="30" as="geometry">
            <mxRectangle width="44" height="30" as="alternateBounds" />
          </mxGeometry>
        </mxCell>
        <mxCell id="yq9nLCr21f6rnNmGo06T-55" value="id" style="shape=partialRectangle;html=1;whiteSpace=wrap;connectable=0;fillColor=none;top=0;left=0;bottom=0;right=0;align=left;spacingLeft=6;overflow=hidden;strokeColor=inherit;fontSize=16;" parent="yq9nLCr21f6rnNmGo06T-53" vertex="1">
          <mxGeometry x="44" width="156" height="30" as="geometry">
            <mxRectangle width="156" height="30" as="alternateBounds" />
          </mxGeometry>
        </mxCell>
        <mxCell id="yq9nLCr21f6rnNmGo06T-56" value="" style="shape=tableRow;horizontal=0;startSize=0;swimlaneHead=0;swimlaneBody=0;top=0;left=0;bottom=0;right=0;collapsible=0;dropTarget=0;fillColor=none;points=[[0,0.5],[1,0.5]];portConstraint=eastwest;strokeColor=inherit;fontSize=16;" parent="yq9nLCr21f6rnNmGo06T-52" vertex="1">
          <mxGeometry y="60" width="200" height="36" as="geometry" />
        </mxCell>
        <mxCell id="yq9nLCr21f6rnNmGo06T-57" value="" style="shape=partialRectangle;html=1;whiteSpace=wrap;connectable=0;fillColor=none;top=0;left=0;bottom=0;right=0;overflow=hidden;strokeColor=inherit;fontSize=16;" parent="yq9nLCr21f6rnNmGo06T-56" vertex="1">
          <mxGeometry width="44" height="36" as="geometry">
            <mxRectangle width="44" height="36" as="alternateBounds" />
          </mxGeometry>
        </mxCell>
        <mxCell id="yq9nLCr21f6rnNmGo06T-58" value="created_at" style="shape=partialRectangle;html=1;whiteSpace=wrap;connectable=0;fillColor=none;top=0;left=0;bottom=0;right=0;align=left;spacingLeft=6;overflow=hidden;strokeColor=inherit;fontSize=16;" parent="yq9nLCr21f6rnNmGo06T-56" vertex="1">
          <mxGeometry x="44" width="156" height="36" as="geometry">
            <mxRectangle width="156" height="36" as="alternateBounds" />
          </mxGeometry>
        </mxCell>
        <mxCell id="yq9nLCr21f6rnNmGo06T-59" value="" style="shape=tableRow;horizontal=0;startSize=0;swimlaneHead=0;swimlaneBody=0;top=0;left=0;bottom=0;right=0;collapsible=0;dropTarget=0;fillColor=none;points=[[0,0.5],[1,0.5]];portConstraint=eastwest;strokeColor=inherit;fontSize=16;" parent="yq9nLCr21f6rnNmGo06T-52" vertex="1">
          <mxGeometry y="96" width="200" height="29" as="geometry" />
        </mxCell>
        <mxCell id="yq9nLCr21f6rnNmGo06T-60" value="" style="shape=partialRectangle;html=1;whiteSpace=wrap;connectable=0;fillColor=none;top=0;left=0;bottom=0;right=0;overflow=hidden;strokeColor=inherit;fontSize=16;" parent="yq9nLCr21f6rnNmGo06T-59" vertex="1">
          <mxGeometry width="44" height="29" as="geometry">
            <mxRectangle width="44" height="29" as="alternateBounds" />
          </mxGeometry>
        </mxCell>
        <mxCell id="yq9nLCr21f6rnNmGo06T-61" value="updated_at" style="shape=partialRectangle;html=1;whiteSpace=wrap;connectable=0;fillColor=none;top=0;left=0;bottom=0;right=0;align=left;spacingLeft=6;overflow=hidden;strokeColor=inherit;fontSize=16;" parent="yq9nLCr21f6rnNmGo06T-59" vertex="1">
          <mxGeometry x="44" width="156" height="29" as="geometry">
            <mxRectangle width="156" height="29" as="alternateBounds" />
          </mxGeometry>
        </mxCell>
        <mxCell id="yq9nLCr21f6rnNmGo06T-62" style="shape=tableRow;horizontal=0;startSize=0;swimlaneHead=0;swimlaneBody=0;top=0;left=0;bottom=0;right=0;collapsible=0;dropTarget=0;fillColor=none;points=[[0,0.5],[1,0.5]];portConstraint=eastwest;strokeColor=inherit;fontSize=16;" parent="yq9nLCr21f6rnNmGo06T-52" vertex="1">
          <mxGeometry y="125" width="200" height="29" as="geometry" />
        </mxCell>
        <mxCell id="yq9nLCr21f6rnNmGo06T-63" value="" style="shape=partialRectangle;html=1;whiteSpace=wrap;connectable=0;fillColor=none;top=0;left=0;bottom=0;right=0;overflow=hidden;strokeColor=inherit;fontSize=16;" parent="yq9nLCr21f6rnNmGo06T-62" vertex="1">
          <mxGeometry width="44" height="29" as="geometry">
            <mxRectangle width="44" height="29" as="alternateBounds" />
          </mxGeometry>
        </mxCell>
        <mxCell id="yq9nLCr21f6rnNmGo06T-64" value="title" style="shape=partialRectangle;html=1;whiteSpace=wrap;connectable=0;fillColor=none;top=0;left=0;bottom=0;right=0;align=left;spacingLeft=6;overflow=hidden;strokeColor=inherit;fontSize=16;" parent="yq9nLCr21f6rnNmGo06T-62" vertex="1">
          <mxGeometry x="44" width="156" height="29" as="geometry">
            <mxRectangle width="156" height="29" as="alternateBounds" />
          </mxGeometry>
        </mxCell>
        <mxCell id="yq9nLCr21f6rnNmGo06T-65" style="shape=tableRow;horizontal=0;startSize=0;swimlaneHead=0;swimlaneBody=0;top=0;left=0;bottom=0;right=0;collapsible=0;dropTarget=0;fillColor=none;points=[[0,0.5],[1,0.5]];portConstraint=eastwest;strokeColor=inherit;fontSize=16;" parent="yq9nLCr21f6rnNmGo06T-52" vertex="1">
          <mxGeometry y="154" width="200" height="29" as="geometry" />
        </mxCell>
        <mxCell id="yq9nLCr21f6rnNmGo06T-66" value="" style="shape=partialRectangle;html=1;whiteSpace=wrap;connectable=0;fillColor=none;top=0;left=0;bottom=0;right=0;overflow=hidden;strokeColor=inherit;fontSize=16;" parent="yq9nLCr21f6rnNmGo06T-65" vertex="1">
          <mxGeometry width="44" height="29" as="geometry">
            <mxRectangle width="44" height="29" as="alternateBounds" />
          </mxGeometry>
        </mxCell>
        <mxCell id="yq9nLCr21f6rnNmGo06T-67" value="number" style="shape=partialRectangle;html=1;whiteSpace=wrap;connectable=0;fillColor=none;top=0;left=0;bottom=0;right=0;align=left;spacingLeft=6;overflow=hidden;strokeColor=inherit;fontSize=16;" parent="yq9nLCr21f6rnNmGo06T-65" vertex="1">
          <mxGeometry x="44" width="156" height="29" as="geometry">
            <mxRectangle width="156" height="29" as="alternateBounds" />
          </mxGeometry>
        </mxCell>
        <mxCell id="yq9nLCr21f6rnNmGo06T-71" style="shape=tableRow;horizontal=0;startSize=0;swimlaneHead=0;swimlaneBody=0;top=0;left=0;bottom=0;right=0;collapsible=0;dropTarget=0;fillColor=none;points=[[0,0.5],[1,0.5]];portConstraint=eastwest;strokeColor=inherit;fontSize=16;" parent="yq9nLCr21f6rnNmGo06T-52" vertex="1">
          <mxGeometry y="183" width="200" height="29" as="geometry" />
        </mxCell>
        <mxCell id="yq9nLCr21f6rnNmGo06T-72" style="shape=partialRectangle;html=1;whiteSpace=wrap;connectable=0;fillColor=none;top=0;left=0;bottom=0;right=0;overflow=hidden;strokeColor=inherit;fontSize=16;fontStyle=1" parent="yq9nLCr21f6rnNmGo06T-71" vertex="1">
          <mxGeometry width="44" height="29" as="geometry">
            <mxRectangle width="44" height="29" as="alternateBounds" />
          </mxGeometry>
        </mxCell>
        <mxCell id="yq9nLCr21f6rnNmGo06T-73" value="release_date" style="shape=partialRectangle;html=1;whiteSpace=wrap;connectable=0;fillColor=none;top=0;left=0;bottom=0;right=0;align=left;spacingLeft=6;overflow=hidden;strokeColor=inherit;fontSize=16;" parent="yq9nLCr21f6rnNmGo06T-71" vertex="1">
          <mxGeometry x="44" width="156" height="29" as="geometry">
            <mxRectangle width="156" height="29" as="alternateBounds" />
          </mxGeometry>
        </mxCell>
        <mxCell id="yq9nLCr21f6rnNmGo06T-68" style="shape=tableRow;horizontal=0;startSize=0;swimlaneHead=0;swimlaneBody=0;top=0;left=0;bottom=0;right=0;collapsible=0;dropTarget=0;fillColor=none;points=[[0,0.5],[1,0.5]];portConstraint=eastwest;strokeColor=inherit;fontSize=16;" parent="yq9nLCr21f6rnNmGo06T-52" vertex="1">
          <mxGeometry y="212" width="200" height="29" as="geometry" />
        </mxCell>
        <mxCell id="yq9nLCr21f6rnNmGo06T-69" value="" style="shape=partialRectangle;html=1;whiteSpace=wrap;connectable=0;fillColor=none;top=0;left=0;bottom=0;right=0;overflow=hidden;strokeColor=inherit;fontSize=16;fontStyle=1" parent="yq9nLCr21f6rnNmGo06T-68" vertex="1">
          <mxGeometry width="44" height="29" as="geometry">
            <mxRectangle width="44" height="29" as="alternateBounds" />
          </mxGeometry>
        </mxCell>
        <mxCell id="yq9nLCr21f6rnNmGo06T-70" value="end_date" style="shape=partialRectangle;html=1;whiteSpace=wrap;connectable=0;fillColor=none;top=0;left=0;bottom=0;right=0;align=left;spacingLeft=6;overflow=hidden;strokeColor=inherit;fontSize=16;" parent="yq9nLCr21f6rnNmGo06T-68" vertex="1">
          <mxGeometry x="44" width="156" height="29" as="geometry">
            <mxRectangle width="156" height="29" as="alternateBounds" />
          </mxGeometry>
        </mxCell>
        <mxCell id="yq9nLCr21f6rnNmGo06T-77" style="shape=tableRow;horizontal=0;startSize=0;swimlaneHead=0;swimlaneBody=0;top=0;left=0;bottom=0;right=0;collapsible=0;dropTarget=0;fillColor=none;points=[[0,0.5],[1,0.5]];portConstraint=eastwest;strokeColor=inherit;fontSize=16;" parent="yq9nLCr21f6rnNmGo06T-52" vertex="1">
          <mxGeometry y="241" width="200" height="29" as="geometry" />
        </mxCell>
        <mxCell id="yq9nLCr21f6rnNmGo06T-78" value="FK" style="shape=partialRectangle;html=1;whiteSpace=wrap;connectable=0;fillColor=none;top=0;left=0;bottom=0;right=0;overflow=hidden;strokeColor=inherit;fontSize=16;fontStyle=1" parent="yq9nLCr21f6rnNmGo06T-77" vertex="1">
          <mxGeometry width="44" height="29" as="geometry">
            <mxRectangle width="44" height="29" as="alternateBounds" />
          </mxGeometry>
        </mxCell>
        <mxCell id="yq9nLCr21f6rnNmGo06T-79" value="serie_id" style="shape=partialRectangle;html=1;whiteSpace=wrap;connectable=0;fillColor=none;top=0;left=0;bottom=0;right=0;align=left;spacingLeft=6;overflow=hidden;strokeColor=inherit;fontSize=16;" parent="yq9nLCr21f6rnNmGo06T-77" vertex="1">
          <mxGeometry x="44" width="156" height="29" as="geometry">
            <mxRectangle width="156" height="29" as="alternateBounds" />
          </mxGeometry>
        </mxCell>
        <mxCell id="yq9nLCr21f6rnNmGo06T-80" value="actor_episode" style="shape=table;startSize=30;container=1;collapsible=0;childLayout=tableLayout;fixedRows=1;rowLines=0;fontStyle=1;strokeColor=default;fontSize=16;" parent="1" vertex="1">
          <mxGeometry x="40" y="280" width="200" height="183" as="geometry" />
        </mxCell>
        <mxCell id="yq9nLCr21f6rnNmGo06T-81" value="" style="shape=tableRow;horizontal=0;startSize=0;swimlaneHead=0;swimlaneBody=0;top=0;left=0;bottom=0;right=0;collapsible=0;dropTarget=0;fillColor=none;points=[[0,0.5],[1,0.5]];portConstraint=eastwest;strokeColor=inherit;fontSize=16;" parent="yq9nLCr21f6rnNmGo06T-80" vertex="1">
          <mxGeometry y="30" width="200" height="30" as="geometry" />
        </mxCell>
        <mxCell id="yq9nLCr21f6rnNmGo06T-82" value="&lt;b&gt;PK&lt;/b&gt;" style="shape=partialRectangle;html=1;whiteSpace=wrap;connectable=0;fillColor=none;top=0;left=0;bottom=0;right=0;overflow=hidden;pointerEvents=1;strokeColor=inherit;fontSize=16;" parent="yq9nLCr21f6rnNmGo06T-81" vertex="1">
          <mxGeometry width="44" height="30" as="geometry">
            <mxRectangle width="44" height="30" as="alternateBounds" />
          </mxGeometry>
        </mxCell>
        <mxCell id="yq9nLCr21f6rnNmGo06T-83" value="id" style="shape=partialRectangle;html=1;whiteSpace=wrap;connectable=0;fillColor=none;top=0;left=0;bottom=0;right=0;align=left;spacingLeft=6;overflow=hidden;strokeColor=inherit;fontSize=16;" parent="yq9nLCr21f6rnNmGo06T-81" vertex="1">
          <mxGeometry x="44" width="156" height="30" as="geometry">
            <mxRectangle width="156" height="30" as="alternateBounds" />
          </mxGeometry>
        </mxCell>
        <mxCell id="yq9nLCr21f6rnNmGo06T-84" value="" style="shape=tableRow;horizontal=0;startSize=0;swimlaneHead=0;swimlaneBody=0;top=0;left=0;bottom=0;right=0;collapsible=0;dropTarget=0;fillColor=none;points=[[0,0.5],[1,0.5]];portConstraint=eastwest;strokeColor=inherit;fontSize=16;" parent="yq9nLCr21f6rnNmGo06T-80" vertex="1">
          <mxGeometry y="60" width="200" height="36" as="geometry" />
        </mxCell>
        <mxCell id="yq9nLCr21f6rnNmGo06T-85" value="" style="shape=partialRectangle;html=1;whiteSpace=wrap;connectable=0;fillColor=none;top=0;left=0;bottom=0;right=0;overflow=hidden;strokeColor=inherit;fontSize=16;" parent="yq9nLCr21f6rnNmGo06T-84" vertex="1">
          <mxGeometry width="44" height="36" as="geometry">
            <mxRectangle width="44" height="36" as="alternateBounds" />
          </mxGeometry>
        </mxCell>
        <mxCell id="yq9nLCr21f6rnNmGo06T-86" value="created_at" style="shape=partialRectangle;html=1;whiteSpace=wrap;connectable=0;fillColor=none;top=0;left=0;bottom=0;right=0;align=left;spacingLeft=6;overflow=hidden;strokeColor=inherit;fontSize=16;" parent="yq9nLCr21f6rnNmGo06T-84" vertex="1">
          <mxGeometry x="44" width="156" height="36" as="geometry">
            <mxRectangle width="156" height="36" as="alternateBounds" />
          </mxGeometry>
        </mxCell>
        <mxCell id="yq9nLCr21f6rnNmGo06T-87" value="" style="shape=tableRow;horizontal=0;startSize=0;swimlaneHead=0;swimlaneBody=0;top=0;left=0;bottom=0;right=0;collapsible=0;dropTarget=0;fillColor=none;points=[[0,0.5],[1,0.5]];portConstraint=eastwest;strokeColor=inherit;fontSize=16;" parent="yq9nLCr21f6rnNmGo06T-80" vertex="1">
          <mxGeometry y="96" width="200" height="29" as="geometry" />
        </mxCell>
        <mxCell id="yq9nLCr21f6rnNmGo06T-88" value="" style="shape=partialRectangle;html=1;whiteSpace=wrap;connectable=0;fillColor=none;top=0;left=0;bottom=0;right=0;overflow=hidden;strokeColor=inherit;fontSize=16;" parent="yq9nLCr21f6rnNmGo06T-87" vertex="1">
          <mxGeometry width="44" height="29" as="geometry">
            <mxRectangle width="44" height="29" as="alternateBounds" />
          </mxGeometry>
        </mxCell>
        <mxCell id="yq9nLCr21f6rnNmGo06T-89" value="updated_at" style="shape=partialRectangle;html=1;whiteSpace=wrap;connectable=0;fillColor=none;top=0;left=0;bottom=0;right=0;align=left;spacingLeft=6;overflow=hidden;strokeColor=inherit;fontSize=16;" parent="yq9nLCr21f6rnNmGo06T-87" vertex="1">
          <mxGeometry x="44" width="156" height="29" as="geometry">
            <mxRectangle width="156" height="29" as="alternateBounds" />
          </mxGeometry>
        </mxCell>
        <mxCell id="yq9nLCr21f6rnNmGo06T-90" style="shape=tableRow;horizontal=0;startSize=0;swimlaneHead=0;swimlaneBody=0;top=0;left=0;bottom=0;right=0;collapsible=0;dropTarget=0;fillColor=none;points=[[0,0.5],[1,0.5]];portConstraint=eastwest;strokeColor=inherit;fontSize=16;" parent="yq9nLCr21f6rnNmGo06T-80" vertex="1">
          <mxGeometry y="125" width="200" height="29" as="geometry" />
        </mxCell>
        <mxCell id="yq9nLCr21f6rnNmGo06T-91" value="&lt;b&gt;FK&lt;/b&gt;" style="shape=partialRectangle;html=1;whiteSpace=wrap;connectable=0;fillColor=none;top=0;left=0;bottom=0;right=0;overflow=hidden;strokeColor=inherit;fontSize=16;" parent="yq9nLCr21f6rnNmGo06T-90" vertex="1">
          <mxGeometry width="44" height="29" as="geometry">
            <mxRectangle width="44" height="29" as="alternateBounds" />
          </mxGeometry>
        </mxCell>
        <mxCell id="yq9nLCr21f6rnNmGo06T-92" value="actor_id" style="shape=partialRectangle;html=1;whiteSpace=wrap;connectable=0;fillColor=none;top=0;left=0;bottom=0;right=0;align=left;spacingLeft=6;overflow=hidden;strokeColor=inherit;fontSize=16;" parent="yq9nLCr21f6rnNmGo06T-90" vertex="1">
          <mxGeometry x="44" width="156" height="29" as="geometry">
            <mxRectangle width="156" height="29" as="alternateBounds" />
          </mxGeometry>
        </mxCell>
        <mxCell id="yq9nLCr21f6rnNmGo06T-93" style="shape=tableRow;horizontal=0;startSize=0;swimlaneHead=0;swimlaneBody=0;top=0;left=0;bottom=0;right=0;collapsible=0;dropTarget=0;fillColor=none;points=[[0,0.5],[1,0.5]];portConstraint=eastwest;strokeColor=inherit;fontSize=16;" parent="yq9nLCr21f6rnNmGo06T-80" vertex="1">
          <mxGeometry y="154" width="200" height="29" as="geometry" />
        </mxCell>
        <mxCell id="yq9nLCr21f6rnNmGo06T-94" value="&lt;b&gt;FK&lt;/b&gt;" style="shape=partialRectangle;html=1;whiteSpace=wrap;connectable=0;fillColor=none;top=0;left=0;bottom=0;right=0;overflow=hidden;strokeColor=inherit;fontSize=16;" parent="yq9nLCr21f6rnNmGo06T-93" vertex="1">
          <mxGeometry width="44" height="29" as="geometry">
            <mxRectangle width="44" height="29" as="alternateBounds" />
          </mxGeometry>
        </mxCell>
        <mxCell id="yq9nLCr21f6rnNmGo06T-95" value="episode_id" style="shape=partialRectangle;html=1;whiteSpace=wrap;connectable=0;fillColor=none;top=0;left=0;bottom=0;right=0;align=left;spacingLeft=6;overflow=hidden;strokeColor=inherit;fontSize=16;" parent="yq9nLCr21f6rnNmGo06T-93" vertex="1">
          <mxGeometry x="44" width="156" height="29" as="geometry">
            <mxRectangle width="156" height="29" as="alternateBounds" />
          </mxGeometry>
        </mxCell>
        <mxCell id="yq9nLCr21f6rnNmGo06T-96" value="episodes" style="shape=table;startSize=30;container=1;collapsible=0;childLayout=tableLayout;fixedRows=1;rowLines=0;fontStyle=1;strokeColor=default;fontSize=16;" parent="1" vertex="1">
          <mxGeometry x="360" y="460" width="200" height="270" as="geometry" />
        </mxCell>
        <mxCell id="yq9nLCr21f6rnNmGo06T-97" value="" style="shape=tableRow;horizontal=0;startSize=0;swimlaneHead=0;swimlaneBody=0;top=0;left=0;bottom=0;right=0;collapsible=0;dropTarget=0;fillColor=none;points=[[0,0.5],[1,0.5]];portConstraint=eastwest;strokeColor=inherit;fontSize=16;" parent="yq9nLCr21f6rnNmGo06T-96" vertex="1">
          <mxGeometry y="30" width="200" height="30" as="geometry" />
        </mxCell>
        <mxCell id="yq9nLCr21f6rnNmGo06T-98" value="&lt;b&gt;PK&lt;/b&gt;" style="shape=partialRectangle;html=1;whiteSpace=wrap;connectable=0;fillColor=none;top=0;left=0;bottom=0;right=0;overflow=hidden;pointerEvents=1;strokeColor=inherit;fontSize=16;" parent="yq9nLCr21f6rnNmGo06T-97" vertex="1">
          <mxGeometry width="44" height="30" as="geometry">
            <mxRectangle width="44" height="30" as="alternateBounds" />
          </mxGeometry>
        </mxCell>
        <mxCell id="yq9nLCr21f6rnNmGo06T-99" value="id" style="shape=partialRectangle;html=1;whiteSpace=wrap;connectable=0;fillColor=none;top=0;left=0;bottom=0;right=0;align=left;spacingLeft=6;overflow=hidden;strokeColor=inherit;fontSize=16;" parent="yq9nLCr21f6rnNmGo06T-97" vertex="1">
          <mxGeometry x="44" width="156" height="30" as="geometry">
            <mxRectangle width="156" height="30" as="alternateBounds" />
          </mxGeometry>
        </mxCell>
        <mxCell id="yq9nLCr21f6rnNmGo06T-100" value="" style="shape=tableRow;horizontal=0;startSize=0;swimlaneHead=0;swimlaneBody=0;top=0;left=0;bottom=0;right=0;collapsible=0;dropTarget=0;fillColor=none;points=[[0,0.5],[1,0.5]];portConstraint=eastwest;strokeColor=inherit;fontSize=16;" parent="yq9nLCr21f6rnNmGo06T-96" vertex="1">
          <mxGeometry y="60" width="200" height="36" as="geometry" />
        </mxCell>
        <mxCell id="yq9nLCr21f6rnNmGo06T-101" value="" style="shape=partialRectangle;html=1;whiteSpace=wrap;connectable=0;fillColor=none;top=0;left=0;bottom=0;right=0;overflow=hidden;strokeColor=inherit;fontSize=16;" parent="yq9nLCr21f6rnNmGo06T-100" vertex="1">
          <mxGeometry width="44" height="36" as="geometry">
            <mxRectangle width="44" height="36" as="alternateBounds" />
          </mxGeometry>
        </mxCell>
        <mxCell id="yq9nLCr21f6rnNmGo06T-102" value="created_at" style="shape=partialRectangle;html=1;whiteSpace=wrap;connectable=0;fillColor=none;top=0;left=0;bottom=0;right=0;align=left;spacingLeft=6;overflow=hidden;strokeColor=inherit;fontSize=16;" parent="yq9nLCr21f6rnNmGo06T-100" vertex="1">
          <mxGeometry x="44" width="156" height="36" as="geometry">
            <mxRectangle width="156" height="36" as="alternateBounds" />
          </mxGeometry>
        </mxCell>
        <mxCell id="yq9nLCr21f6rnNmGo06T-103" value="" style="shape=tableRow;horizontal=0;startSize=0;swimlaneHead=0;swimlaneBody=0;top=0;left=0;bottom=0;right=0;collapsible=0;dropTarget=0;fillColor=none;points=[[0,0.5],[1,0.5]];portConstraint=eastwest;strokeColor=inherit;fontSize=16;" parent="yq9nLCr21f6rnNmGo06T-96" vertex="1">
          <mxGeometry y="96" width="200" height="29" as="geometry" />
        </mxCell>
        <mxCell id="yq9nLCr21f6rnNmGo06T-104" value="" style="shape=partialRectangle;html=1;whiteSpace=wrap;connectable=0;fillColor=none;top=0;left=0;bottom=0;right=0;overflow=hidden;strokeColor=inherit;fontSize=16;" parent="yq9nLCr21f6rnNmGo06T-103" vertex="1">
          <mxGeometry width="44" height="29" as="geometry">
            <mxRectangle width="44" height="29" as="alternateBounds" />
          </mxGeometry>
        </mxCell>
        <mxCell id="yq9nLCr21f6rnNmGo06T-105" value="updated_at" style="shape=partialRectangle;html=1;whiteSpace=wrap;connectable=0;fillColor=none;top=0;left=0;bottom=0;right=0;align=left;spacingLeft=6;overflow=hidden;strokeColor=inherit;fontSize=16;" parent="yq9nLCr21f6rnNmGo06T-103" vertex="1">
          <mxGeometry x="44" width="156" height="29" as="geometry">
            <mxRectangle width="156" height="29" as="alternateBounds" />
          </mxGeometry>
        </mxCell>
        <mxCell id="yq9nLCr21f6rnNmGo06T-106" style="shape=tableRow;horizontal=0;startSize=0;swimlaneHead=0;swimlaneBody=0;top=0;left=0;bottom=0;right=0;collapsible=0;dropTarget=0;fillColor=none;points=[[0,0.5],[1,0.5]];portConstraint=eastwest;strokeColor=inherit;fontSize=16;" parent="yq9nLCr21f6rnNmGo06T-96" vertex="1">
          <mxGeometry y="125" width="200" height="29" as="geometry" />
        </mxCell>
        <mxCell id="yq9nLCr21f6rnNmGo06T-107" value="" style="shape=partialRectangle;html=1;whiteSpace=wrap;connectable=0;fillColor=none;top=0;left=0;bottom=0;right=0;overflow=hidden;strokeColor=inherit;fontSize=16;" parent="yq9nLCr21f6rnNmGo06T-106" vertex="1">
          <mxGeometry width="44" height="29" as="geometry">
            <mxRectangle width="44" height="29" as="alternateBounds" />
          </mxGeometry>
        </mxCell>
        <mxCell id="yq9nLCr21f6rnNmGo06T-108" value="title" style="shape=partialRectangle;html=1;whiteSpace=wrap;connectable=0;fillColor=none;top=0;left=0;bottom=0;right=0;align=left;spacingLeft=6;overflow=hidden;strokeColor=inherit;fontSize=16;" parent="yq9nLCr21f6rnNmGo06T-106" vertex="1">
          <mxGeometry x="44" width="156" height="29" as="geometry">
            <mxRectangle width="156" height="29" as="alternateBounds" />
          </mxGeometry>
        </mxCell>
        <mxCell id="yq9nLCr21f6rnNmGo06T-109" style="shape=tableRow;horizontal=0;startSize=0;swimlaneHead=0;swimlaneBody=0;top=0;left=0;bottom=0;right=0;collapsible=0;dropTarget=0;fillColor=none;points=[[0,0.5],[1,0.5]];portConstraint=eastwest;strokeColor=inherit;fontSize=16;" parent="yq9nLCr21f6rnNmGo06T-96" vertex="1">
          <mxGeometry y="154" width="200" height="29" as="geometry" />
        </mxCell>
        <mxCell id="yq9nLCr21f6rnNmGo06T-110" value="" style="shape=partialRectangle;html=1;whiteSpace=wrap;connectable=0;fillColor=none;top=0;left=0;bottom=0;right=0;overflow=hidden;strokeColor=inherit;fontSize=16;" parent="yq9nLCr21f6rnNmGo06T-109" vertex="1">
          <mxGeometry width="44" height="29" as="geometry">
            <mxRectangle width="44" height="29" as="alternateBounds" />
          </mxGeometry>
        </mxCell>
        <mxCell id="yq9nLCr21f6rnNmGo06T-111" value="number" style="shape=partialRectangle;html=1;whiteSpace=wrap;connectable=0;fillColor=none;top=0;left=0;bottom=0;right=0;align=left;spacingLeft=6;overflow=hidden;strokeColor=inherit;fontSize=16;" parent="yq9nLCr21f6rnNmGo06T-109" vertex="1">
          <mxGeometry x="44" width="156" height="29" as="geometry">
            <mxRectangle width="156" height="29" as="alternateBounds" />
          </mxGeometry>
        </mxCell>
        <mxCell id="yq9nLCr21f6rnNmGo06T-112" style="shape=tableRow;horizontal=0;startSize=0;swimlaneHead=0;swimlaneBody=0;top=0;left=0;bottom=0;right=0;collapsible=0;dropTarget=0;fillColor=none;points=[[0,0.5],[1,0.5]];portConstraint=eastwest;strokeColor=inherit;fontSize=16;" parent="yq9nLCr21f6rnNmGo06T-96" vertex="1">
          <mxGeometry y="183" width="200" height="29" as="geometry" />
        </mxCell>
        <mxCell id="yq9nLCr21f6rnNmGo06T-113" style="shape=partialRectangle;html=1;whiteSpace=wrap;connectable=0;fillColor=none;top=0;left=0;bottom=0;right=0;overflow=hidden;strokeColor=inherit;fontSize=16;fontStyle=1" parent="yq9nLCr21f6rnNmGo06T-112" vertex="1">
          <mxGeometry width="44" height="29" as="geometry">
            <mxRectangle width="44" height="29" as="alternateBounds" />
          </mxGeometry>
        </mxCell>
        <mxCell id="yq9nLCr21f6rnNmGo06T-114" value="release_date" style="shape=partialRectangle;html=1;whiteSpace=wrap;connectable=0;fillColor=none;top=0;left=0;bottom=0;right=0;align=left;spacingLeft=6;overflow=hidden;strokeColor=inherit;fontSize=16;" parent="yq9nLCr21f6rnNmGo06T-112" vertex="1">
          <mxGeometry x="44" width="156" height="29" as="geometry">
            <mxRectangle width="156" height="29" as="alternateBounds" />
          </mxGeometry>
        </mxCell>
        <mxCell id="yq9nLCr21f6rnNmGo06T-115" style="shape=tableRow;horizontal=0;startSize=0;swimlaneHead=0;swimlaneBody=0;top=0;left=0;bottom=0;right=0;collapsible=0;dropTarget=0;fillColor=none;points=[[0,0.5],[1,0.5]];portConstraint=eastwest;strokeColor=inherit;fontSize=16;" parent="yq9nLCr21f6rnNmGo06T-96" vertex="1">
          <mxGeometry y="212" width="200" height="29" as="geometry" />
        </mxCell>
        <mxCell id="yq9nLCr21f6rnNmGo06T-116" value="" style="shape=partialRectangle;html=1;whiteSpace=wrap;connectable=0;fillColor=none;top=0;left=0;bottom=0;right=0;overflow=hidden;strokeColor=inherit;fontSize=16;fontStyle=1" parent="yq9nLCr21f6rnNmGo06T-115" vertex="1">
          <mxGeometry width="44" height="29" as="geometry">
            <mxRectangle width="44" height="29" as="alternateBounds" />
          </mxGeometry>
        </mxCell>
        <mxCell id="yq9nLCr21f6rnNmGo06T-117" value="rating" style="shape=partialRectangle;html=1;whiteSpace=wrap;connectable=0;fillColor=none;top=0;left=0;bottom=0;right=0;align=left;spacingLeft=6;overflow=hidden;strokeColor=inherit;fontSize=16;" parent="yq9nLCr21f6rnNmGo06T-115" vertex="1">
          <mxGeometry x="44" width="156" height="29" as="geometry">
            <mxRectangle width="156" height="29" as="alternateBounds" />
          </mxGeometry>
        </mxCell>
        <mxCell id="yq9nLCr21f6rnNmGo06T-118" style="shape=tableRow;horizontal=0;startSize=0;swimlaneHead=0;swimlaneBody=0;top=0;left=0;bottom=0;right=0;collapsible=0;dropTarget=0;fillColor=none;points=[[0,0.5],[1,0.5]];portConstraint=eastwest;strokeColor=inherit;fontSize=16;" parent="yq9nLCr21f6rnNmGo06T-96" vertex="1">
          <mxGeometry y="241" width="200" height="29" as="geometry" />
        </mxCell>
        <mxCell id="yq9nLCr21f6rnNmGo06T-119" value="FK" style="shape=partialRectangle;html=1;whiteSpace=wrap;connectable=0;fillColor=none;top=0;left=0;bottom=0;right=0;overflow=hidden;strokeColor=inherit;fontSize=16;fontStyle=1" parent="yq9nLCr21f6rnNmGo06T-118" vertex="1">
          <mxGeometry width="44" height="29" as="geometry">
            <mxRectangle width="44" height="29" as="alternateBounds" />
          </mxGeometry>
        </mxCell>
        <mxCell id="yq9nLCr21f6rnNmGo06T-120" value="season_id" style="shape=partialRectangle;html=1;whiteSpace=wrap;connectable=0;fillColor=none;top=0;left=0;bottom=0;right=0;align=left;spacingLeft=6;overflow=hidden;strokeColor=inherit;fontSize=16;" parent="yq9nLCr21f6rnNmGo06T-118" vertex="1">
          <mxGeometry x="44" width="156" height="29" as="geometry">
            <mxRectangle width="156" height="29" as="alternateBounds" />
          </mxGeometry>
        </mxCell>
        <mxCell id="yq9nLCr21f6rnNmGo06T-121" value="actor_movie" style="shape=table;startSize=30;container=1;collapsible=0;childLayout=tableLayout;fixedRows=1;rowLines=0;fontStyle=1;strokeColor=default;fontSize=16;" parent="1" vertex="1">
          <mxGeometry x="40" y="40" width="200" height="183" as="geometry" />
        </mxCell>
        <mxCell id="yq9nLCr21f6rnNmGo06T-122" value="" style="shape=tableRow;horizontal=0;startSize=0;swimlaneHead=0;swimlaneBody=0;top=0;left=0;bottom=0;right=0;collapsible=0;dropTarget=0;fillColor=none;points=[[0,0.5],[1,0.5]];portConstraint=eastwest;strokeColor=inherit;fontSize=16;" parent="yq9nLCr21f6rnNmGo06T-121" vertex="1">
          <mxGeometry y="30" width="200" height="30" as="geometry" />
        </mxCell>
        <mxCell id="yq9nLCr21f6rnNmGo06T-123" value="&lt;b&gt;PK&lt;/b&gt;" style="shape=partialRectangle;html=1;whiteSpace=wrap;connectable=0;fillColor=none;top=0;left=0;bottom=0;right=0;overflow=hidden;pointerEvents=1;strokeColor=inherit;fontSize=16;" parent="yq9nLCr21f6rnNmGo06T-122" vertex="1">
          <mxGeometry width="44" height="30" as="geometry">
            <mxRectangle width="44" height="30" as="alternateBounds" />
          </mxGeometry>
        </mxCell>
        <mxCell id="yq9nLCr21f6rnNmGo06T-124" value="id" style="shape=partialRectangle;html=1;whiteSpace=wrap;connectable=0;fillColor=none;top=0;left=0;bottom=0;right=0;align=left;spacingLeft=6;overflow=hidden;strokeColor=inherit;fontSize=16;" parent="yq9nLCr21f6rnNmGo06T-122" vertex="1">
          <mxGeometry x="44" width="156" height="30" as="geometry">
            <mxRectangle width="156" height="30" as="alternateBounds" />
          </mxGeometry>
        </mxCell>
        <mxCell id="yq9nLCr21f6rnNmGo06T-125" value="" style="shape=tableRow;horizontal=0;startSize=0;swimlaneHead=0;swimlaneBody=0;top=0;left=0;bottom=0;right=0;collapsible=0;dropTarget=0;fillColor=none;points=[[0,0.5],[1,0.5]];portConstraint=eastwest;strokeColor=inherit;fontSize=16;" parent="yq9nLCr21f6rnNmGo06T-121" vertex="1">
          <mxGeometry y="60" width="200" height="36" as="geometry" />
        </mxCell>
        <mxCell id="yq9nLCr21f6rnNmGo06T-126" value="" style="shape=partialRectangle;html=1;whiteSpace=wrap;connectable=0;fillColor=none;top=0;left=0;bottom=0;right=0;overflow=hidden;strokeColor=inherit;fontSize=16;" parent="yq9nLCr21f6rnNmGo06T-125" vertex="1">
          <mxGeometry width="44" height="36" as="geometry">
            <mxRectangle width="44" height="36" as="alternateBounds" />
          </mxGeometry>
        </mxCell>
        <mxCell id="yq9nLCr21f6rnNmGo06T-127" value="created_at" style="shape=partialRectangle;html=1;whiteSpace=wrap;connectable=0;fillColor=none;top=0;left=0;bottom=0;right=0;align=left;spacingLeft=6;overflow=hidden;strokeColor=inherit;fontSize=16;" parent="yq9nLCr21f6rnNmGo06T-125" vertex="1">
          <mxGeometry x="44" width="156" height="36" as="geometry">
            <mxRectangle width="156" height="36" as="alternateBounds" />
          </mxGeometry>
        </mxCell>
        <mxCell id="yq9nLCr21f6rnNmGo06T-128" value="" style="shape=tableRow;horizontal=0;startSize=0;swimlaneHead=0;swimlaneBody=0;top=0;left=0;bottom=0;right=0;collapsible=0;dropTarget=0;fillColor=none;points=[[0,0.5],[1,0.5]];portConstraint=eastwest;strokeColor=inherit;fontSize=16;" parent="yq9nLCr21f6rnNmGo06T-121" vertex="1">
          <mxGeometry y="96" width="200" height="29" as="geometry" />
        </mxCell>
        <mxCell id="yq9nLCr21f6rnNmGo06T-129" value="" style="shape=partialRectangle;html=1;whiteSpace=wrap;connectable=0;fillColor=none;top=0;left=0;bottom=0;right=0;overflow=hidden;strokeColor=inherit;fontSize=16;" parent="yq9nLCr21f6rnNmGo06T-128" vertex="1">
          <mxGeometry width="44" height="29" as="geometry">
            <mxRectangle width="44" height="29" as="alternateBounds" />
          </mxGeometry>
        </mxCell>
        <mxCell id="yq9nLCr21f6rnNmGo06T-130" value="updated_at" style="shape=partialRectangle;html=1;whiteSpace=wrap;connectable=0;fillColor=none;top=0;left=0;bottom=0;right=0;align=left;spacingLeft=6;overflow=hidden;strokeColor=inherit;fontSize=16;" parent="yq9nLCr21f6rnNmGo06T-128" vertex="1">
          <mxGeometry x="44" width="156" height="29" as="geometry">
            <mxRectangle width="156" height="29" as="alternateBounds" />
          </mxGeometry>
        </mxCell>
        <mxCell id="yq9nLCr21f6rnNmGo06T-134" style="shape=tableRow;horizontal=0;startSize=0;swimlaneHead=0;swimlaneBody=0;top=0;left=0;bottom=0;right=0;collapsible=0;dropTarget=0;fillColor=none;points=[[0,0.5],[1,0.5]];portConstraint=eastwest;strokeColor=inherit;fontSize=16;" parent="yq9nLCr21f6rnNmGo06T-121" vertex="1">
          <mxGeometry y="125" width="200" height="29" as="geometry" />
        </mxCell>
        <mxCell id="yq9nLCr21f6rnNmGo06T-135" value="&lt;b&gt;FK&lt;/b&gt;" style="shape=partialRectangle;html=1;whiteSpace=wrap;connectable=0;fillColor=none;top=0;left=0;bottom=0;right=0;overflow=hidden;strokeColor=inherit;fontSize=16;" parent="yq9nLCr21f6rnNmGo06T-134" vertex="1">
          <mxGeometry width="44" height="29" as="geometry">
            <mxRectangle width="44" height="29" as="alternateBounds" />
          </mxGeometry>
        </mxCell>
        <mxCell id="yq9nLCr21f6rnNmGo06T-136" value="movie_id" style="shape=partialRectangle;html=1;whiteSpace=wrap;connectable=0;fillColor=none;top=0;left=0;bottom=0;right=0;align=left;spacingLeft=6;overflow=hidden;strokeColor=inherit;fontSize=16;" parent="yq9nLCr21f6rnNmGo06T-134" vertex="1">
          <mxGeometry x="44" width="156" height="29" as="geometry">
            <mxRectangle width="156" height="29" as="alternateBounds" />
          </mxGeometry>
        </mxCell>
        <mxCell id="yq9nLCr21f6rnNmGo06T-131" style="shape=tableRow;horizontal=0;startSize=0;swimlaneHead=0;swimlaneBody=0;top=0;left=0;bottom=0;right=0;collapsible=0;dropTarget=0;fillColor=none;points=[[0,0.5],[1,0.5]];portConstraint=eastwest;strokeColor=inherit;fontSize=16;" parent="yq9nLCr21f6rnNmGo06T-121" vertex="1">
          <mxGeometry y="154" width="200" height="29" as="geometry" />
        </mxCell>
        <mxCell id="yq9nLCr21f6rnNmGo06T-132" value="&lt;b&gt;FK&lt;/b&gt;" style="shape=partialRectangle;html=1;whiteSpace=wrap;connectable=0;fillColor=none;top=0;left=0;bottom=0;right=0;overflow=hidden;strokeColor=inherit;fontSize=16;" parent="yq9nLCr21f6rnNmGo06T-131" vertex="1">
          <mxGeometry width="44" height="29" as="geometry">
            <mxRectangle width="44" height="29" as="alternateBounds" />
          </mxGeometry>
        </mxCell>
        <mxCell id="yq9nLCr21f6rnNmGo06T-133" value="actor_id" style="shape=partialRectangle;html=1;whiteSpace=wrap;connectable=0;fillColor=none;top=0;left=0;bottom=0;right=0;align=left;spacingLeft=6;overflow=hidden;strokeColor=inherit;fontSize=16;" parent="yq9nLCr21f6rnNmGo06T-131" vertex="1">
          <mxGeometry x="44" width="156" height="29" as="geometry">
            <mxRectangle width="156" height="29" as="alternateBounds" />
          </mxGeometry>
        </mxCell>
        <mxCell id="yq9nLCr21f6rnNmGo06T-137" style="edgeStyle=orthogonalEdgeStyle;rounded=0;orthogonalLoop=1;jettySize=auto;html=1;strokeColor=default;strokeWidth=2;align=center;verticalAlign=middle;fontFamily=Helvetica;fontSize=11;fontColor=default;labelBackgroundColor=default;startArrow=ERoneToMany;startFill=0;startSize=8;endArrow=ERone;endFill=0;endSize=8;sourcePerimeterSpacing=13;targetPerimeterSpacing=13;exitX=1;exitY=0.5;exitDx=0;exitDy=0;entryX=-0.004;entryY=0.097;entryDx=0;entryDy=0;entryPerimeter=0;" parent="1" source="yq9nLCr21f6rnNmGo06T-131" edge="1" target="yq9nLCr21f6rnNmGo06T-2">
          <mxGeometry relative="1" as="geometry">
            <mxPoint x="350" y="220" as="targetPoint" />
            <Array as="points">
              <mxPoint x="280" y="209" />
              <mxPoint x="280" y="221" />
            </Array>
          </mxGeometry>
        </mxCell>
        <mxCell id="yq9nLCr21f6rnNmGo06T-138" style="edgeStyle=orthogonalEdgeStyle;rounded=0;orthogonalLoop=1;jettySize=auto;html=1;exitX=1;exitY=0.5;exitDx=0;exitDy=0;strokeColor=default;strokeWidth=2;align=center;verticalAlign=middle;fontFamily=Helvetica;fontSize=11;fontColor=default;labelBackgroundColor=default;startArrow=ERoneToMany;startFill=0;startSize=8;endArrow=ERone;endFill=0;endSize=8;sourcePerimeterSpacing=13;targetPerimeterSpacing=13;entryX=0;entryY=0.107;entryDx=0;entryDy=0;entryPerimeter=0;" parent="1" source="yq9nLCr21f6rnNmGo06T-134" target="QTCGtiCho6-xsiTmYkx_-31" edge="1">
          <mxGeometry relative="1" as="geometry">
            <mxPoint x="740" y="-100" as="targetPoint" />
            <Array as="points">
              <mxPoint x="280" y="180" />
              <mxPoint x="280" y="72" />
            </Array>
          </mxGeometry>
        </mxCell>
        <mxCell id="yq9nLCr21f6rnNmGo06T-139" style="edgeStyle=orthogonalEdgeStyle;rounded=0;orthogonalLoop=1;jettySize=auto;html=1;exitX=1;exitY=0.5;exitDx=0;exitDy=0;strokeColor=default;strokeWidth=2;align=center;verticalAlign=middle;fontFamily=Helvetica;fontSize=11;fontColor=default;labelBackgroundColor=default;startArrow=ERoneToMany;startFill=0;startSize=8;endArrow=ERone;endFill=0;endSize=8;sourcePerimeterSpacing=13;targetPerimeterSpacing=13;entryX=0.001;entryY=0.764;entryDx=0;entryDy=0;entryPerimeter=0;" parent="1" source="yq9nLCr21f6rnNmGo06T-90" edge="1" target="yq9nLCr21f6rnNmGo06T-2">
          <mxGeometry relative="1" as="geometry">
            <mxPoint x="220" y="416.5" as="sourcePoint" />
            <mxPoint x="350" y="240" as="targetPoint" />
            <Array as="points">
              <mxPoint x="280" y="420" />
              <mxPoint x="280" y="241" />
            </Array>
          </mxGeometry>
        </mxCell>
        <mxCell id="yq9nLCr21f6rnNmGo06T-140" style="edgeStyle=orthogonalEdgeStyle;rounded=0;orthogonalLoop=1;jettySize=auto;html=1;exitX=1;exitY=0.5;exitDx=0;exitDy=0;entryX=0;entryY=0.5;entryDx=0;entryDy=0;strokeColor=default;strokeWidth=2;align=center;verticalAlign=middle;fontFamily=Helvetica;fontSize=11;fontColor=default;labelBackgroundColor=default;startArrow=ERoneToMany;startFill=0;startSize=8;endArrow=ERone;endFill=0;endSize=8;sourcePerimeterSpacing=13;targetPerimeterSpacing=13;" parent="1" source="yq9nLCr21f6rnNmGo06T-93" target="yq9nLCr21f6rnNmGo06T-97" edge="1">
          <mxGeometry relative="1" as="geometry">
            <Array as="points">
              <mxPoint x="280" y="449" />
              <mxPoint x="280" y="505" />
            </Array>
          </mxGeometry>
        </mxCell>
        <mxCell id="yq9nLCr21f6rnNmGo06T-141" style="edgeStyle=orthogonalEdgeStyle;rounded=0;orthogonalLoop=1;jettySize=auto;html=1;entryX=0;entryY=0.5;entryDx=0;entryDy=0;strokeColor=default;strokeWidth=2;align=center;verticalAlign=middle;fontFamily=Helvetica;fontSize=11;fontColor=default;labelBackgroundColor=default;startArrow=ERoneToMany;startFill=0;startSize=8;endArrow=ERone;endFill=0;endSize=8;sourcePerimeterSpacing=13;targetPerimeterSpacing=13;exitX=1;exitY=0.5;exitDx=0;exitDy=0;" parent="1" source="yq9nLCr21f6rnNmGo06T-118" target="yq9nLCr21f6rnNmGo06T-53" edge="1">
          <mxGeometry relative="1" as="geometry">
            <Array as="points">
              <mxPoint x="600" y="716" />
              <mxPoint x="600" y="435" />
            </Array>
          </mxGeometry>
        </mxCell>
        <mxCell id="yq9nLCr21f6rnNmGo06T-142" style="edgeStyle=orthogonalEdgeStyle;rounded=0;orthogonalLoop=1;jettySize=auto;html=1;exitX=1;exitY=0.5;exitDx=0;exitDy=0;entryX=0;entryY=0.5;entryDx=0;entryDy=0;strokeColor=default;strokeWidth=2;align=center;verticalAlign=middle;fontFamily=Helvetica;fontSize=11;fontColor=default;labelBackgroundColor=default;startArrow=ERoneToMany;startFill=0;startSize=8;endArrow=ERone;endFill=0;endSize=8;sourcePerimeterSpacing=13;targetPerimeterSpacing=13;" parent="1" source="yq9nLCr21f6rnNmGo06T-77" target="yq9nLCr21f6rnNmGo06T-31" edge="1">
          <mxGeometry relative="1" as="geometry" />
        </mxCell>
        <mxCell id="yq9nLCr21f6rnNmGo06T-149" style="edgeStyle=orthogonalEdgeStyle;rounded=0;orthogonalLoop=1;jettySize=auto;html=1;strokeColor=default;strokeWidth=2;align=center;verticalAlign=middle;fontFamily=Helvetica;fontSize=11;fontColor=default;labelBackgroundColor=default;startArrow=ERoneToMany;startFill=0;startSize=8;endArrow=ERone;endFill=0;endSize=8;sourcePerimeterSpacing=13;targetPerimeterSpacing=13;exitX=1;exitY=0.5;exitDx=0;exitDy=0;entryX=-0.005;entryY=0.901;entryDx=0;entryDy=0;entryPerimeter=0;" parent="1" source="yq9nLCr21f6rnNmGo06T-143" target="QTCGtiCho6-xsiTmYkx_-32" edge="1">
          <mxGeometry relative="1" as="geometry">
            <mxPoint x="563" y="243" as="sourcePoint" />
            <mxPoint x="740" y="-80" as="targetPoint" />
            <Array as="points">
              <mxPoint x="600" y="415" />
              <mxPoint x="600" y="97" />
            </Array>
          </mxGeometry>
        </mxCell>
        <mxCell id="yq9nLCr21f6rnNmGo06T-153" value="users" style="shape=table;startSize=30;container=1;collapsible=0;childLayout=tableLayout;fixedRows=1;rowLines=0;fontStyle=1;strokeColor=default;fontSize=16;" parent="1" vertex="1">
          <mxGeometry x="1320" y="310" width="200" height="241" as="geometry" />
        </mxCell>
        <mxCell id="yq9nLCr21f6rnNmGo06T-154" value="" style="shape=tableRow;horizontal=0;startSize=0;swimlaneHead=0;swimlaneBody=0;top=0;left=0;bottom=0;right=0;collapsible=0;dropTarget=0;fillColor=none;points=[[0,0.5],[1,0.5]];portConstraint=eastwest;strokeColor=inherit;fontSize=16;" parent="yq9nLCr21f6rnNmGo06T-153" vertex="1">
          <mxGeometry y="30" width="200" height="30" as="geometry" />
        </mxCell>
        <mxCell id="yq9nLCr21f6rnNmGo06T-155" value="&lt;b&gt;PK&lt;/b&gt;" style="shape=partialRectangle;html=1;whiteSpace=wrap;connectable=0;fillColor=none;top=0;left=0;bottom=0;right=0;overflow=hidden;pointerEvents=1;strokeColor=inherit;fontSize=16;" parent="yq9nLCr21f6rnNmGo06T-154" vertex="1">
          <mxGeometry width="44" height="30" as="geometry">
            <mxRectangle width="44" height="30" as="alternateBounds" />
          </mxGeometry>
        </mxCell>
        <mxCell id="yq9nLCr21f6rnNmGo06T-156" value="id" style="shape=partialRectangle;html=1;whiteSpace=wrap;connectable=0;fillColor=none;top=0;left=0;bottom=0;right=0;align=left;spacingLeft=6;overflow=hidden;strokeColor=inherit;fontSize=16;" parent="yq9nLCr21f6rnNmGo06T-154" vertex="1">
          <mxGeometry x="44" width="156" height="30" as="geometry">
            <mxRectangle width="156" height="30" as="alternateBounds" />
          </mxGeometry>
        </mxCell>
        <mxCell id="yq9nLCr21f6rnNmGo06T-157" value="" style="shape=tableRow;horizontal=0;startSize=0;swimlaneHead=0;swimlaneBody=0;top=0;left=0;bottom=0;right=0;collapsible=0;dropTarget=0;fillColor=none;points=[[0,0.5],[1,0.5]];portConstraint=eastwest;strokeColor=inherit;fontSize=16;" parent="yq9nLCr21f6rnNmGo06T-153" vertex="1">
          <mxGeometry y="60" width="200" height="36" as="geometry" />
        </mxCell>
        <mxCell id="yq9nLCr21f6rnNmGo06T-158" value="" style="shape=partialRectangle;html=1;whiteSpace=wrap;connectable=0;fillColor=none;top=0;left=0;bottom=0;right=0;overflow=hidden;strokeColor=inherit;fontSize=16;" parent="yq9nLCr21f6rnNmGo06T-157" vertex="1">
          <mxGeometry width="44" height="36" as="geometry">
            <mxRectangle width="44" height="36" as="alternateBounds" />
          </mxGeometry>
        </mxCell>
        <mxCell id="yq9nLCr21f6rnNmGo06T-159" value="name" style="shape=partialRectangle;html=1;whiteSpace=wrap;connectable=0;fillColor=none;top=0;left=0;bottom=0;right=0;align=left;spacingLeft=6;overflow=hidden;strokeColor=inherit;fontSize=16;" parent="yq9nLCr21f6rnNmGo06T-157" vertex="1">
          <mxGeometry x="44" width="156" height="36" as="geometry">
            <mxRectangle width="156" height="36" as="alternateBounds" />
          </mxGeometry>
        </mxCell>
        <mxCell id="yq9nLCr21f6rnNmGo06T-160" value="" style="shape=tableRow;horizontal=0;startSize=0;swimlaneHead=0;swimlaneBody=0;top=0;left=0;bottom=0;right=0;collapsible=0;dropTarget=0;fillColor=none;points=[[0,0.5],[1,0.5]];portConstraint=eastwest;strokeColor=inherit;fontSize=16;" parent="yq9nLCr21f6rnNmGo06T-153" vertex="1">
          <mxGeometry y="96" width="200" height="29" as="geometry" />
        </mxCell>
        <mxCell id="yq9nLCr21f6rnNmGo06T-161" value="&lt;b&gt;&lt;font style=&quot;font-size: 10px;&quot;&gt;UK&lt;/font&gt;&lt;/b&gt;" style="shape=partialRectangle;html=1;whiteSpace=wrap;connectable=0;fillColor=none;top=0;left=0;bottom=0;right=0;overflow=hidden;strokeColor=inherit;fontSize=16;" parent="yq9nLCr21f6rnNmGo06T-160" vertex="1">
          <mxGeometry width="44" height="29" as="geometry">
            <mxRectangle width="44" height="29" as="alternateBounds" />
          </mxGeometry>
        </mxCell>
        <mxCell id="yq9nLCr21f6rnNmGo06T-162" value="email" style="shape=partialRectangle;html=1;whiteSpace=wrap;connectable=0;fillColor=none;top=0;left=0;bottom=0;right=0;align=left;spacingLeft=6;overflow=hidden;strokeColor=inherit;fontSize=16;" parent="yq9nLCr21f6rnNmGo06T-160" vertex="1">
          <mxGeometry x="44" width="156" height="29" as="geometry">
            <mxRectangle width="156" height="29" as="alternateBounds" />
          </mxGeometry>
        </mxCell>
        <mxCell id="yq9nLCr21f6rnNmGo06T-163" style="shape=tableRow;horizontal=0;startSize=0;swimlaneHead=0;swimlaneBody=0;top=0;left=0;bottom=0;right=0;collapsible=0;dropTarget=0;fillColor=none;points=[[0,0.5],[1,0.5]];portConstraint=eastwest;strokeColor=inherit;fontSize=16;" parent="yq9nLCr21f6rnNmGo06T-153" vertex="1">
          <mxGeometry y="125" width="200" height="29" as="geometry" />
        </mxCell>
        <mxCell id="yq9nLCr21f6rnNmGo06T-164" value="" style="shape=partialRectangle;html=1;whiteSpace=wrap;connectable=0;fillColor=none;top=0;left=0;bottom=0;right=0;overflow=hidden;strokeColor=inherit;fontSize=16;" parent="yq9nLCr21f6rnNmGo06T-163" vertex="1">
          <mxGeometry width="44" height="29" as="geometry">
            <mxRectangle width="44" height="29" as="alternateBounds" />
          </mxGeometry>
        </mxCell>
        <mxCell id="yq9nLCr21f6rnNmGo06T-165" value="password" style="shape=partialRectangle;html=1;whiteSpace=wrap;connectable=0;fillColor=none;top=0;left=0;bottom=0;right=0;align=left;spacingLeft=6;overflow=hidden;strokeColor=inherit;fontSize=16;" parent="yq9nLCr21f6rnNmGo06T-163" vertex="1">
          <mxGeometry x="44" width="156" height="29" as="geometry">
            <mxRectangle width="156" height="29" as="alternateBounds" />
          </mxGeometry>
        </mxCell>
        <mxCell id="yq9nLCr21f6rnNmGo06T-226" style="shape=tableRow;horizontal=0;startSize=0;swimlaneHead=0;swimlaneBody=0;top=0;left=0;bottom=0;right=0;collapsible=0;dropTarget=0;fillColor=none;points=[[0,0.5],[1,0.5]];portConstraint=eastwest;strokeColor=inherit;fontSize=16;" parent="yq9nLCr21f6rnNmGo06T-153" vertex="1">
          <mxGeometry y="154" width="200" height="29" as="geometry" />
        </mxCell>
        <mxCell id="yq9nLCr21f6rnNmGo06T-227" value="" style="shape=partialRectangle;html=1;whiteSpace=wrap;connectable=0;fillColor=none;top=0;left=0;bottom=0;right=0;overflow=hidden;strokeColor=inherit;fontSize=16;" parent="yq9nLCr21f6rnNmGo06T-226" vertex="1">
          <mxGeometry width="44" height="29" as="geometry">
            <mxRectangle width="44" height="29" as="alternateBounds" />
          </mxGeometry>
        </mxCell>
        <mxCell id="yq9nLCr21f6rnNmGo06T-228" value="remember_token" style="shape=partialRectangle;html=1;whiteSpace=wrap;connectable=0;fillColor=none;top=0;left=0;bottom=0;right=0;align=left;spacingLeft=6;overflow=hidden;strokeColor=inherit;fontSize=16;" parent="yq9nLCr21f6rnNmGo06T-226" vertex="1">
          <mxGeometry x="44" width="156" height="29" as="geometry">
            <mxRectangle width="156" height="29" as="alternateBounds" />
          </mxGeometry>
        </mxCell>
        <mxCell id="yq9nLCr21f6rnNmGo06T-166" style="shape=tableRow;horizontal=0;startSize=0;swimlaneHead=0;swimlaneBody=0;top=0;left=0;bottom=0;right=0;collapsible=0;dropTarget=0;fillColor=none;points=[[0,0.5],[1,0.5]];portConstraint=eastwest;strokeColor=inherit;fontSize=16;" parent="yq9nLCr21f6rnNmGo06T-153" vertex="1">
          <mxGeometry y="183" width="200" height="29" as="geometry" />
        </mxCell>
        <mxCell id="yq9nLCr21f6rnNmGo06T-167" value="" style="shape=partialRectangle;html=1;whiteSpace=wrap;connectable=0;fillColor=none;top=0;left=0;bottom=0;right=0;overflow=hidden;strokeColor=inherit;fontSize=16;" parent="yq9nLCr21f6rnNmGo06T-166" vertex="1">
          <mxGeometry width="44" height="29" as="geometry">
            <mxRectangle width="44" height="29" as="alternateBounds" />
          </mxGeometry>
        </mxCell>
        <mxCell id="yq9nLCr21f6rnNmGo06T-168" value="created_at" style="shape=partialRectangle;html=1;whiteSpace=wrap;connectable=0;fillColor=none;top=0;left=0;bottom=0;right=0;align=left;spacingLeft=6;overflow=hidden;strokeColor=inherit;fontSize=16;" parent="yq9nLCr21f6rnNmGo06T-166" vertex="1">
          <mxGeometry x="44" width="156" height="29" as="geometry">
            <mxRectangle width="156" height="29" as="alternateBounds" />
          </mxGeometry>
        </mxCell>
        <mxCell id="yq9nLCr21f6rnNmGo06T-169" style="shape=tableRow;horizontal=0;startSize=0;swimlaneHead=0;swimlaneBody=0;top=0;left=0;bottom=0;right=0;collapsible=0;dropTarget=0;fillColor=none;points=[[0,0.5],[1,0.5]];portConstraint=eastwest;strokeColor=inherit;fontSize=16;" parent="yq9nLCr21f6rnNmGo06T-153" vertex="1">
          <mxGeometry y="212" width="200" height="29" as="geometry" />
        </mxCell>
        <mxCell id="yq9nLCr21f6rnNmGo06T-170" style="shape=partialRectangle;html=1;whiteSpace=wrap;connectable=0;fillColor=none;top=0;left=0;bottom=0;right=0;overflow=hidden;strokeColor=inherit;fontSize=16;fontStyle=1" parent="yq9nLCr21f6rnNmGo06T-169" vertex="1">
          <mxGeometry width="44" height="29" as="geometry">
            <mxRectangle width="44" height="29" as="alternateBounds" />
          </mxGeometry>
        </mxCell>
        <mxCell id="yq9nLCr21f6rnNmGo06T-171" value="updated_at" style="shape=partialRectangle;html=1;whiteSpace=wrap;connectable=0;fillColor=none;top=0;left=0;bottom=0;right=0;align=left;spacingLeft=6;overflow=hidden;strokeColor=inherit;fontSize=16;" parent="yq9nLCr21f6rnNmGo06T-169" vertex="1">
          <mxGeometry x="44" width="156" height="29" as="geometry">
            <mxRectangle width="156" height="29" as="alternateBounds" />
          </mxGeometry>
        </mxCell>
        <mxCell id="yq9nLCr21f6rnNmGo06T-207" value="password_resets" style="shape=table;startSize=30;container=1;collapsible=0;childLayout=tableLayout;fixedRows=1;rowLines=0;fontStyle=1;strokeColor=default;fontSize=16;" parent="1" vertex="1">
          <mxGeometry x="1320" y="604" width="200" height="126" as="geometry" />
        </mxCell>
        <mxCell id="yq9nLCr21f6rnNmGo06T-208" value="" style="shape=tableRow;horizontal=0;startSize=0;swimlaneHead=0;swimlaneBody=0;top=0;left=0;bottom=0;right=0;collapsible=0;dropTarget=0;fillColor=none;points=[[0,0.5],[1,0.5]];portConstraint=eastwest;strokeColor=inherit;fontSize=16;" parent="yq9nLCr21f6rnNmGo06T-207" vertex="1">
          <mxGeometry y="30" width="200" height="30" as="geometry" />
        </mxCell>
        <mxCell id="yq9nLCr21f6rnNmGo06T-209" value="key" style="shape=partialRectangle;html=1;whiteSpace=wrap;connectable=0;fillColor=none;top=0;left=0;bottom=0;right=0;overflow=hidden;pointerEvents=1;strokeColor=inherit;fontSize=16;" parent="yq9nLCr21f6rnNmGo06T-208" vertex="1">
          <mxGeometry width="44" height="30" as="geometry">
            <mxRectangle width="44" height="30" as="alternateBounds" />
          </mxGeometry>
        </mxCell>
        <mxCell id="yq9nLCr21f6rnNmGo06T-210" value="email" style="shape=partialRectangle;html=1;whiteSpace=wrap;connectable=0;fillColor=none;top=0;left=0;bottom=0;right=0;align=left;spacingLeft=6;overflow=hidden;strokeColor=inherit;fontSize=16;" parent="yq9nLCr21f6rnNmGo06T-208" vertex="1">
          <mxGeometry x="44" width="156" height="30" as="geometry">
            <mxRectangle width="156" height="30" as="alternateBounds" />
          </mxGeometry>
        </mxCell>
        <mxCell id="yq9nLCr21f6rnNmGo06T-211" style="shape=tableRow;horizontal=0;startSize=0;swimlaneHead=0;swimlaneBody=0;top=0;left=0;bottom=0;right=0;collapsible=0;dropTarget=0;fillColor=none;points=[[0,0.5],[1,0.5]];portConstraint=eastwest;strokeColor=inherit;fontSize=16;" parent="yq9nLCr21f6rnNmGo06T-207" vertex="1">
          <mxGeometry y="60" width="200" height="30" as="geometry" />
        </mxCell>
        <mxCell id="yq9nLCr21f6rnNmGo06T-212" value="key" style="shape=partialRectangle;html=1;whiteSpace=wrap;connectable=0;fillColor=none;top=0;left=0;bottom=0;right=0;overflow=hidden;strokeColor=inherit;fontSize=16;" parent="yq9nLCr21f6rnNmGo06T-211" vertex="1">
          <mxGeometry width="44" height="30" as="geometry">
            <mxRectangle width="44" height="30" as="alternateBounds" />
          </mxGeometry>
        </mxCell>
        <mxCell id="yq9nLCr21f6rnNmGo06T-213" value="token" style="shape=partialRectangle;html=1;whiteSpace=wrap;connectable=0;fillColor=none;top=0;left=0;bottom=0;right=0;align=left;spacingLeft=6;overflow=hidden;strokeColor=inherit;fontSize=16;" parent="yq9nLCr21f6rnNmGo06T-211" vertex="1">
          <mxGeometry x="44" width="156" height="30" as="geometry">
            <mxRectangle width="156" height="30" as="alternateBounds" />
          </mxGeometry>
        </mxCell>
        <mxCell id="yq9nLCr21f6rnNmGo06T-214" value="" style="shape=tableRow;horizontal=0;startSize=0;swimlaneHead=0;swimlaneBody=0;top=0;left=0;bottom=0;right=0;collapsible=0;dropTarget=0;fillColor=none;points=[[0,0.5],[1,0.5]];portConstraint=eastwest;strokeColor=inherit;fontSize=16;" parent="yq9nLCr21f6rnNmGo06T-207" vertex="1">
          <mxGeometry y="90" width="200" height="36" as="geometry" />
        </mxCell>
        <mxCell id="yq9nLCr21f6rnNmGo06T-215" value="" style="shape=partialRectangle;html=1;whiteSpace=wrap;connectable=0;fillColor=none;top=0;left=0;bottom=0;right=0;overflow=hidden;strokeColor=inherit;fontSize=16;" parent="yq9nLCr21f6rnNmGo06T-214" vertex="1">
          <mxGeometry width="44" height="36" as="geometry">
            <mxRectangle width="44" height="36" as="alternateBounds" />
          </mxGeometry>
        </mxCell>
        <mxCell id="yq9nLCr21f6rnNmGo06T-216" value="created_at" style="shape=partialRectangle;html=1;whiteSpace=wrap;connectable=0;fillColor=none;top=0;left=0;bottom=0;right=0;align=left;spacingLeft=6;overflow=hidden;strokeColor=inherit;fontSize=16;" parent="yq9nLCr21f6rnNmGo06T-214" vertex="1">
          <mxGeometry x="44" width="156" height="36" as="geometry">
            <mxRectangle width="156" height="36" as="alternateBounds" />
          </mxGeometry>
        </mxCell>
        <mxCell id="xkWWa8w4_FQV3Jol-ZYA-2" style="edgeStyle=orthogonalEdgeStyle;rounded=0;orthogonalLoop=1;jettySize=auto;html=1;exitX=1;exitY=0.5;exitDx=0;exitDy=0;entryX=0.011;entryY=0.792;entryDx=0;entryDy=0;entryPerimeter=0;strokeColor=default;strokeWidth=2;align=center;verticalAlign=middle;fontFamily=Helvetica;fontSize=11;fontColor=default;labelBackgroundColor=default;startArrow=ERoneToMany;startFill=0;startSize=8;endArrow=ERone;endFill=0;endSize=8;sourcePerimeterSpacing=13;targetPerimeterSpacing=13;" edge="1" parent="1" source="yq9nLCr21f6rnNmGo06T-43" target="QTCGtiCho6-xsiTmYkx_-71">
          <mxGeometry relative="1" as="geometry" />
        </mxCell>
      </root>
    </mxGraphModel>
  </diagram>
</mxfile>
